<svg width="96" height="36" viewBox="0 0 96 36" fill="none" xmlns="http://www.w3.org/2000/svg">
<path fill-rule="evenodd" clip-rule="evenodd" d="M92.5807 23.9851C92.6381 24.6373 93.1617 25.4674 94.0695 25.4674H94.6C94.8062 25.4674 94.9748 25.2994 94.9748 25.0943V13.465H94.9722C94.9619 13.2691 94.7994 13.1121 94.6 13.1121H92.9555C92.7561 13.1121 92.5936 13.2691 92.5833 13.465H92.5807V14.4099C91.5728 13.1725 89.9839 12.6589 88.3907 12.6589C84.7687 12.6589 81.8327 15.5857 81.8327 19.1964C81.8327 22.8073 84.7687 25.7341 88.3907 25.7341C89.9839 25.7341 91.7208 25.1182 92.5807 23.9837V23.9851ZM88.3967 23.4461C86.0934 23.4461 84.226 21.5436 84.226 19.1964C84.226 16.8496 86.0934 14.947 88.3967 14.947C90.7009 14.947 92.5679 16.8496 92.5679 19.1964C92.5679 21.5436 90.7009 23.4461 88.3967 23.4461Z" fill="white" fill-opacity="0.6"/>
<path fill-rule="evenodd" clip-rule="evenodd" d="M79.7524 18.3674C79.7524 14.9753 77.6059 12.6869 74.1826 12.6869C72.5484 12.6869 71.2088 13.6289 70.7357 14.438C70.6334 13.8053 70.2965 13.1403 69.2515 13.1403H68.7189C68.5128 13.1403 68.3446 13.3084 68.3446 13.5135V24.0142C68.3446 24.0145 68.3446 24.0153 68.3446 24.0158V25.1438H68.3467C68.3574 25.3394 68.5201 25.4965 68.719 25.4965H70.364C70.3891 25.4965 70.4139 25.4935 70.4377 25.4889C70.4486 25.4868 70.4587 25.4825 70.4693 25.4795C70.4815 25.4758 70.4943 25.4729 70.5059 25.4681C70.5206 25.462 70.5338 25.454 70.5474 25.4464C70.5541 25.4423 70.5611 25.4395 70.5675 25.4352C70.584 25.4246 70.599 25.4119 70.6136 25.399C70.616 25.3966 70.6188 25.395 70.6212 25.3928C70.6375 25.377 70.6525 25.3596 70.6657 25.3415C70.7068 25.2852 70.732 25.217 70.7361 25.1438H70.7382V18.2741C70.7382 16.4523 72.2199 14.9753 74.0476 14.9753C75.8753 14.9753 77.357 16.4523 77.357 18.2741L77.3585 24.0163L77.3589 24.0142C77.3589 24.0193 77.3597 24.0245 77.3597 24.03V25.1438H77.3619C77.3728 25.3394 77.5353 25.4965 77.7341 25.4965H79.3791C79.4045 25.4965 79.429 25.4935 79.4528 25.4889C79.4626 25.4871 79.4715 25.4832 79.4811 25.4805C79.4946 25.4766 79.5084 25.4733 79.5213 25.4681C79.5348 25.4626 79.547 25.4548 79.5598 25.4476C79.5676 25.4433 79.5757 25.4401 79.5831 25.4352C79.5983 25.4252 79.6122 25.4132 79.6259 25.4014C79.6293 25.3981 79.6333 25.3957 79.6365 25.3925C79.6522 25.3775 79.666 25.3613 79.6787 25.3443C79.6796 25.3431 79.6807 25.342 79.6816 25.3408C79.7222 25.2849 79.747 25.2175 79.7513 25.1447C79.7513 25.1442 79.7514 25.1438 79.7514 25.1438H79.7537L79.7524 18.3674Z" fill="white" fill-opacity="0.6"/>
<path fill-rule="evenodd" clip-rule="evenodd" d="M62.6216 23.9851C62.6791 24.6372 63.2029 25.4673 64.1102 25.4673H64.641C64.8468 25.4673 65.0152 25.2994 65.0152 25.0942V13.465H65.0131C65.0024 13.2691 64.8397 13.1121 64.641 13.1121H62.9961C62.7971 13.1121 62.6346 13.2691 62.6235 13.465H62.6216V14.4099C61.6137 13.1725 60.0247 12.6589 58.4313 12.6589C54.8094 12.6589 51.8734 15.5857 51.8734 19.1964C51.8734 22.8072 54.8094 25.7342 58.4313 25.7342C60.0247 25.7342 61.7613 25.1183 62.6215 23.9836L62.6216 23.9851ZM58.4377 23.4461C56.1343 23.4461 54.2669 21.5437 54.2669 19.1964C54.2669 16.8496 56.1343 14.947 58.4377 14.947C60.7413 14.947 62.6085 16.8496 62.6085 19.1964C62.6085 21.5437 60.7413 23.4461 58.4377 23.4461Z" fill="white" fill-opacity="0.6"/>
<path fill-rule="evenodd" clip-rule="evenodd" d="M42.1459 22.3195C43.244 23.0779 44.4426 23.4462 45.5945 23.4462C46.6918 23.4462 47.8263 22.8791 47.8263 21.892C47.8263 20.5743 45.3543 20.3692 43.8012 19.843C42.2477 19.3168 40.9097 18.229 40.9097 16.4675C40.9097 13.772 43.3191 12.6587 45.5679 12.6587C46.9927 12.6587 48.4627 13.127 49.4158 13.798C49.744 14.0459 49.5441 14.3305 49.5441 14.3305L48.6343 15.6258C48.5321 15.7717 48.3533 15.8978 48.0967 15.7399C47.84 15.5821 46.9398 14.9469 45.5679 14.9469C44.1958 14.9469 43.3693 15.5785 43.3693 16.3614C43.3693 17.3002 44.4435 17.5954 45.7016 17.9154C47.8941 18.5045 50.2859 19.2127 50.2859 21.892C50.2859 24.267 48.0574 25.7347 45.5945 25.7347C43.7281 25.7347 42.139 25.2043 40.8063 24.2294C40.5286 23.9524 40.7225 23.6952 40.7225 23.6952L41.6279 22.4065C41.8121 22.1655 42.0443 22.2496 42.1459 22.3195Z" fill="white" fill-opacity="0.6"/>
<path fill-rule="evenodd" clip-rule="evenodd" d="M35.822 23.9851C35.8795 24.6372 36.4033 25.4673 37.3105 25.4673H37.8414C38.0472 25.4673 38.2158 25.2994 38.2158 25.0942V13.465H38.2135C38.2027 13.2691 38.0403 13.1121 37.8414 13.1121H36.1965C35.9975 13.1121 35.8351 13.2691 35.824 13.465H35.822V14.4099C34.8142 13.1725 33.2252 12.6589 31.6318 12.6589C28.0099 12.6589 25.0737 15.5857 25.0737 19.1964C25.0737 22.8072 28.0099 25.7342 31.6318 25.7342C33.2252 25.7342 34.9617 25.1183 35.8218 23.9836L35.822 23.9851ZM31.6382 23.4461C29.3347 23.4461 27.4673 21.5437 27.4673 19.1964C27.4673 16.8496 29.3347 14.947 31.6382 14.947C33.9416 14.947 35.8089 16.8496 35.8089 19.1964C35.8089 21.5437 33.9416 23.4461 31.6382 23.4461Z" fill="white" fill-opacity="0.6"/>
<path fill-rule="evenodd" clip-rule="evenodd" d="M15.8794 19.6412C13.4421 19.6412 11.4661 21.6093 11.4661 24.0374C11.4661 26.4652 13.4421 28.4334 15.8794 28.4334C18.3169 28.4334 20.2928 26.4652 20.2928 24.0374C20.2928 21.6093 18.3169 19.6412 15.8794 19.6412ZM4.41331 19.6416C1.97593 19.6416 0 21.6093 0 24.0374C0 26.4652 1.97593 28.4334 4.41331 28.4334C6.8508 28.4334 8.82683 26.4652 8.82683 24.0374C8.82683 21.6093 6.8508 19.6416 4.41331 19.6416ZM14.5596 14.146C14.5596 16.5741 12.5838 18.5424 10.1464 18.5424C7.70891 18.5424 5.73309 16.5741 5.73309 14.146C5.73309 11.7185 7.70891 9.75012 10.1464 9.75012C12.5838 9.75012 14.5596 11.7185 14.5596 14.146Z" fill="white" fill-opacity="0.6"/>
</svg>
