<svg width="102" height="36" viewBox="0 0 102 36" fill="none" xmlns="http://www.w3.org/2000/svg">
<g clip-path="url(#clip0_5052_2785)">
<path d="M0.625 1.49988H22.482V12.4284H11.5535L0.625 1.49988ZM0.625 12.4284H11.5535L22.482 23.3569H0.625V12.4284ZM0.625 23.3569H11.5535V34.2854L0.625 23.3569Z" fill="white" fill-opacity="0.6"/>
<path d="M34.8145 10.1214H43.6495V12.9289H38.1585V16.8304H43.6495V19.5759H38.1585V24.5714H34.8145V10.1214ZM45.466 14.6214H48.6245V16.7064C48.7895 15.9899 49.127 15.4399 49.636 15.0549C50.158 14.6554 50.7374 14.4564 51.3699 14.4564C51.7005 14.4564 51.976 14.4844 52.1955 14.5389V17.4704C51.8805 17.4324 51.5634 17.4119 51.2459 17.4084C50.3789 17.4084 49.726 17.6899 49.285 18.2544C48.8455 18.8049 48.6245 19.6304 48.6245 20.7319V24.5714H45.4675V14.6214H45.466ZM57.1814 24.8399C56.2184 24.8399 55.3784 24.6124 54.6629 24.1584C53.9609 23.7044 53.403 23.0599 53.053 22.3004C52.6815 21.5029 52.4945 20.6004 52.4945 19.5964C52.4945 18.6054 52.6885 17.7104 53.0735 16.9129C53.4345 16.1424 54.0074 15.4909 54.7249 15.0344C55.4534 14.5804 56.2865 14.3529 57.223 14.3529C57.9244 14.3529 58.5515 14.5049 59.1015 14.8074C59.6515 15.1109 60.0644 15.5239 60.34 16.0459V14.6214H63.4775V24.5714H60.34V23.1674C60.0644 23.6629 59.638 24.0684 59.06 24.3854C58.482 24.6919 57.8359 24.8479 57.1814 24.8399ZM58.09 22.2179C58.8465 22.2179 59.4314 21.9704 59.8445 21.4749C60.2575 20.9794 60.464 20.3529 60.464 19.5964C60.464 18.8534 60.2575 18.2339 59.8445 17.7384C59.4314 17.2429 58.8465 16.9954 58.09 16.9954C57.3735 16.9954 56.7964 17.2359 56.3559 17.7179C55.9294 18.1999 55.716 18.8254 55.716 19.5964C55.716 20.3674 55.9294 20.9999 56.3559 21.4954C56.7964 21.9774 57.3745 22.2179 58.09 22.2179ZM65.6865 14.6214H68.8449V16.0664C69.0659 15.5564 69.4229 15.1434 69.9179 14.8279C70.4279 14.5124 71.0194 14.3529 71.6934 14.3529C73.2624 14.3529 74.3019 14.9649 74.8104 16.1904C75.0904 15.6349 75.5285 15.1754 76.0699 14.8694C76.6489 14.5209 77.3139 14.3424 77.9895 14.3529C80.3429 14.3529 81.5194 15.7009 81.5194 18.3989V24.5714H78.3404V18.9769C78.3404 18.3034 78.2165 17.8079 77.9689 17.4909C77.7209 17.1749 77.3494 17.0159 76.8539 17.0159C76.3174 17.0159 75.9044 17.2019 75.6154 17.5734C75.3264 17.9314 75.1819 18.5569 75.1819 19.4519V24.5714H72.0029V18.9564C72.0029 18.2824 71.8794 17.7934 71.6314 17.4909C71.3984 17.1749 71.0329 17.0159 70.5384 17.0159C69.9874 17.0159 69.5675 17.2019 69.2785 17.5734C68.9894 17.9314 68.8449 18.5569 68.8449 19.4519V24.5714H65.6874V14.6214H65.6865ZM93.3844 19.0804C93.3844 19.5064 93.3564 19.9679 93.3004 20.4634H85.9529C85.9809 21.1104 86.2005 21.6049 86.6134 21.9499C87.0265 22.2934 87.5849 22.4659 88.2854 22.4659C89.2629 22.4659 89.8824 22.1694 90.1434 21.5779H93.2399C93.0879 22.5554 92.5514 23.3459 91.6294 23.9519C90.7215 24.5434 89.6064 24.8399 88.2854 24.8399C86.5794 24.8399 85.2374 24.3784 84.2599 23.4564C83.297 22.5339 82.8149 21.2479 82.8149 19.5964C82.8149 18.5229 83.035 17.5939 83.4754 16.8094C83.9009 16.0259 84.5569 15.3919 85.3539 14.9929C86.1664 14.5669 87.1089 14.3529 88.1834 14.3529C89.201 14.3529 90.1019 14.5524 90.8864 14.9519C91.6844 15.3514 92.2974 15.9084 92.7234 16.6239C93.1644 17.3404 93.3844 18.1589 93.3844 19.0804ZM90.2659 18.5024C90.2524 17.8419 90.0669 17.3389 89.7085 16.9954C89.3514 16.6519 88.8344 16.4794 88.1604 16.4794C87.4864 16.4794 86.9499 16.6649 86.5504 17.0369C86.1654 17.3949 85.9659 17.8829 85.9514 18.5024H90.2659ZM94.7769 14.6214H97.9355V16.7064C98.1004 15.9899 98.4379 15.4399 98.9469 15.0549C99.4409 14.6659 100.052 14.4549 100.681 14.4564C101.011 14.4564 101.287 14.4844 101.506 14.5389V17.4704C101.191 17.4324 100.874 17.4119 100.557 17.4084C99.6899 17.4084 99.0369 17.6899 98.5959 18.2544C98.1549 18.8049 97.9355 19.6304 97.9355 20.7319V24.5714H94.7769V14.6214Z" fill="white" fill-opacity="0.6"/>
</g>
<defs>
<clipPath id="clip0_5052_2785">
<rect width="101.25" height="36" fill="white" transform="translate(0.625)"/>
</clipPath>
</defs>
</svg>
