<svg width="165" height="164" viewBox="0 0 165 164" fill="none" xmlns="http://www.w3.org/2000/svg">
<path d="M63.7406 47.5167C63.6682 47.3238 63.5476 47.1549 63.4512 46.962C61.6665 43.8749 59.2065 41.1496 56.4812 39.582C50.7653 36.2779 45.9659 39.0514 45.9418 45.6114C45.9176 48.9396 47.1718 52.6779 49.1735 55.9096C49.3906 56.2473 49.6076 56.6091 49.8488 56.9226L50.8859 56.3438C50.6447 56.0061 50.4276 55.6685 50.2106 55.3308C48.3294 52.292 47.1235 48.7467 47.1476 45.6114C47.1476 41.632 49.0529 39.3891 51.8747 39.3891C53.0565 39.3891 54.4312 39.7991 55.8782 40.6432C58.5794 42.2108 61.0153 44.9602 62.7276 48.0955C62.9206 48.4573 63.1135 48.8191 63.2824 49.1808L64.2953 48.5779C64.1265 48.2161 63.9576 47.8543 63.7406 47.5167ZM44.0365 58.8761C42.2518 55.572 39.6471 52.6296 36.7771 50.9655C30.9888 47.6373 26.2618 50.5073 26.2376 56.9708C26.2135 60.3232 27.4676 64.0614 29.4694 67.2932C29.6865 67.6308 29.9035 67.9685 30.1447 68.3061L31.1818 67.7032C30.9406 67.3655 30.7235 67.0279 30.5065 66.6902C28.6012 63.6514 27.4194 60.1302 27.4435 56.9949C27.4676 53.0155 29.3488 50.7726 32.1947 50.7726C33.3765 50.7726 34.7271 51.1585 36.1741 52.0026C38.8994 53.5702 41.3353 56.3438 43.0235 59.4791C43.2406 59.8408 43.4094 60.2026 43.5782 60.5643L44.5912 59.9614C44.4224 59.5755 44.2535 59.2379 44.0365 58.8761Z" fill="white"/>
<path d="M152.98 110.273L94.061 144.255C90.564 146.281 84.9205 146.281 81.4475 144.279L8.05752 101.639C4.58458 99.6129 4.6087 96.3329 8.08164 94.307L13.8216 91.0029L81.4475 130.315C84.9205 132.316 90.564 132.316 94.061 130.291L147.24 99.5888L153.005 102.941C156.502 104.991 156.478 108.223 152.98 110.273Z" fill="#E0AAFE"/>
<path d="M24.3565 70.2598C22.5718 66.9316 19.9671 64.0133 17.073 62.3492C11.2847 58.9969 6.55766 61.8669 6.53354 68.3545C6.50943 71.6827 7.76354 75.4451 9.76531 78.6769C9.98237 79.0145 10.1994 79.3522 10.4406 79.6898L11.4777 79.0869C11.2365 78.7733 11.0194 78.4116 10.8024 78.0739C8.92119 75.0351 7.71531 71.5139 7.73943 68.3545C7.76354 64.3992 9.64472 62.1563 12.4665 62.1563C13.6724 62.1563 15.023 62.5422 16.47 63.3863C19.1953 64.9539 21.6312 67.7033 23.3194 70.8386C23.5365 71.2004 23.7053 71.5622 23.8741 71.9239L24.9112 71.321C24.7424 70.9592 24.5494 70.5974 24.3565 70.2598Z" fill="white"/>
<path d="M7.75161 88.1741C3.91208 85.9432 3.86144 82.0916 7.79502 79.8173L66.7072 45.8042C70.3586 43.6987 76.2867 43.706 79.9237 45.8138L91.2204 52.3811C91.3119 52.4342 91.3878 52.5105 91.4405 52.6023C91.4932 52.6941 91.5209 52.7981 91.5206 52.9039C91.5204 53.0098 91.4923 53.1137 91.4391 53.2052C91.386 53.2967 91.3097 53.3727 91.218 53.4254L19.6513 94.7413C19.0748 95.0741 19.3377 94.7751 7.75161 88.1741ZM8.39797 80.8616C5.31091 82.6439 5.28197 85.3451 8.35696 87.1322L19.3546 93.5234L89.713 52.8996L79.3183 46.8557C76.0142 44.9408 70.6239 44.936 67.3077 46.8509L8.39797 80.8616Z" fill="white"/>
<path d="M153.319 88.4706L147 84.8047L145.915 84.1776C145.818 84.6118 145.698 84.9976 145.601 85.3835L146.662 85.9865L152.716 89.5076C155.788 91.3189 155.769 93.9525 152.668 95.7541L93.7482 129.784C90.4199 131.689 85.0417 131.689 81.7617 129.784L20.5511 94.2106L90.9264 53.5965L98.7405 58.1306L99.8017 58.7576L100.622 57.8412L99.5605 57.2382L79.9529 45.8306L79.9287 45.8065C79.6393 45.6376 79.2535 45.7341 79.1087 46.0235C78.9399 46.3129 79.0364 46.6988 79.3258 46.8676L89.7205 52.897L19.0558 93.7041C18.6603 93.9019 18.6169 94.4662 19.0558 94.7412L81.1346 130.821C84.7499 132.944 90.6804 132.944 94.3511 130.821L153.271 96.8153C157.238 94.4759 157.144 90.7063 153.319 88.4706ZM142.225 83.4059L143.455 84.1294C143.865 83.9365 144.251 83.6953 144.636 83.43L143.455 82.7306L123.148 70.937L122.086 70.31L121.266 71.2265L122.328 71.8535L142.225 83.4059Z" fill="white"/>
<path d="M62.7279 48.0956L50.2108 55.3309C50.4279 55.6685 50.6449 56.0062 50.8861 56.3438L63.2826 49.1809C63.1138 48.8191 62.9208 48.4573 62.7279 48.0956ZM30.5067 66.6903C30.7238 67.0279 30.9408 67.3656 31.182 67.7032L43.5785 60.5644C43.4096 60.2026 43.2408 59.8409 43.0238 59.4791L30.5067 66.6903ZM91.2108 52.3885L79.9238 45.8044C76.282 43.7062 70.3491 43.7062 66.7073 45.8044L63.7408 47.5167L62.7279 48.0956L50.2108 55.3309L49.1738 55.9097L44.0367 58.8762L43.0238 59.4791L30.5067 66.6903L29.4697 67.2932L24.3567 70.2597L23.3197 70.8385L10.8026 78.0738L9.76553 78.6767L7.78789 79.8103C3.85671 82.1014 3.90494 85.9362 7.73965 88.1791C19.3402 94.7632 19.0749 95.0767 19.6538 94.7391L91.2108 53.4256C91.3043 53.3716 91.3823 53.2944 91.4373 53.2014C91.4922 53.1085 91.5222 53.0029 91.5244 52.895C91.5244 52.6779 91.4038 52.485 91.2108 52.3885ZM19.3402 93.5332L8.36671 87.142C5.27965 85.3332 5.30377 82.632 8.39083 80.8714L10.4408 79.6897L11.4779 79.0867L23.8744 71.9238L24.9114 71.3209L30.1449 68.3062L31.182 67.7032L43.5785 60.5644L44.5914 59.9614L49.8491 56.9226L50.8861 56.3438L63.2826 49.1809L64.2955 48.5779L67.3102 46.8414C70.6143 44.9362 76.0167 44.9362 79.3208 46.8656L89.7155 52.895L19.3402 93.5332ZM62.7279 48.0956L50.2108 55.3309C50.4279 55.6685 50.6449 56.0062 50.8861 56.3438L63.2826 49.1809C63.1138 48.8191 62.9208 48.4573 62.7279 48.0956Z" fill="white"/>
<path d="M153.319 88.4708L147.764 85.2462C147.658 85.6321 147.451 85.9842 147.169 86.2809L152.716 89.5078C155.788 91.3191 155.769 93.9527 152.668 95.7543L93.7482 129.784C90.4199 131.69 85.0417 131.69 81.7617 129.784L20.5511 94.2108L90.9264 53.5967L99.2711 58.4443L100.091 57.552L91.2158 52.3908C91.1263 52.3318 91.0215 52.3003 90.9143 52.3003C90.8072 52.3003 90.7023 52.3318 90.6129 52.3908L19.0558 93.7043C18.6603 93.9021 18.6169 94.4664 19.0558 94.7414L81.1346 130.821C84.7499 132.944 90.6804 132.944 94.3511 130.821L153.271 96.8155C157.238 94.4761 157.144 90.7065 153.319 88.4708Z" fill="white"/>
<path d="M142.335 82.0819L122.616 70.6477L121.796 71.5401L141.725 83.1165C141.838 82.7258 142.048 82.3713 142.335 82.0819Z" fill="white"/>
<path d="M146.902 79.9816C145.769 81.0911 144.611 82.0317 143.454 82.7311C143.044 82.9964 142.634 83.2375 142.224 83.4064C138.365 85.384 134.265 85.2393 129.707 83.0446L117.672 76.0505L116.852 76.9669L129.152 84.1058C134.337 86.5899 139.04 86.614 143.454 84.1299C143.864 83.9369 144.249 83.6958 144.635 83.4305C145.214 83.0446 145.817 82.5864 146.396 82.104C146.251 82.8517 146.082 83.5269 145.914 84.1781C145.817 84.6122 145.697 84.9981 145.6 85.384C143.767 91.7993 141.259 93.7046 136.025 97.0328L87.7418 124.865L34.876 94.2352L90.9013 61.8934L94.326 63.8711L95.146 62.9546L91.1907 60.6634C91.0973 60.6158 90.994 60.5909 90.8892 60.5909C90.7844 60.5909 90.6811 60.6158 90.5877 60.6634L33.3566 93.7046C32.9562 93.9892 32.9876 94.5318 33.3566 94.7417L87.4283 126.095C87.5248 126.143 87.6454 126.167 87.7418 126.167C87.8383 126.167 87.9589 126.143 88.0313 126.095L136.652 98.0699C142.175 94.5487 144.804 92.354 146.661 85.9869C146.782 85.6252 146.902 85.2152 146.999 84.8052C147.337 83.5511 147.65 82.1281 147.939 80.5364C148.041 79.9768 147.37 79.5716 146.902 79.9816ZM21.2591 82.5381C18.4301 80.9078 18.4205 78.0908 21.2013 76.4749C23.7577 74.9869 27.9349 74.9893 30.5058 76.4749C33.3083 78.0932 33.3131 80.9126 30.5058 82.5381C27.9494 84.0286 23.8783 84.0527 21.2591 82.5381ZM21.809 77.5168C19.7759 78.6986 19.8989 80.3627 21.8621 81.4962C24.0857 82.7793 27.6913 82.7769 29.9005 81.4962C31.9216 80.3217 31.8757 78.6528 29.9029 77.5168C27.701 76.2482 23.9989 76.2458 21.809 77.5168Z" fill="white"/>
<path d="M25.4305 83.5674C25.2845 83.5029 25.17 83.3832 25.1121 83.2345C25.0543 83.0858 25.0577 82.9201 25.1218 82.7739C25.5318 81.843 25.7392 80.7191 25.7392 79.4337C25.7392 73.5297 21.6946 66.3981 16.478 63.3882C11.5652 60.5544 7.76912 62.7418 7.74742 68.3661C7.74742 70.7248 8.42271 73.4187 9.64789 75.939C9.71825 76.0829 9.72855 76.2489 9.67654 76.4004C9.62453 76.5519 9.51445 76.6766 9.37053 76.7469C9.22661 76.8173 9.06064 76.8276 8.90912 76.7756C8.7576 76.7236 8.63295 76.6135 8.56259 76.4696C7.26024 73.7829 6.54395 70.9057 6.54395 68.3637C6.56806 61.7868 11.3795 59.0542 17.0809 62.3439C22.5942 65.525 26.9451 73.0352 26.9451 79.4337C26.9451 80.8855 26.7015 82.1734 26.2215 83.2611C26.157 83.4065 26.0377 83.5205 25.8896 83.5784C25.7414 83.6362 25.5764 83.6307 25.4305 83.5674ZM40.9598 71.1661C38.1308 69.5334 38.1212 66.7164 40.9019 65.1005C43.4608 63.6101 47.638 63.6173 50.2065 65.1005C53.0114 66.7212 53.0114 69.5382 50.2089 71.1661C47.6259 72.6662 43.5573 72.6662 40.9598 71.1661ZM45.547 65.1898C44.0758 65.1898 42.6022 65.5081 41.5097 66.1424C39.4766 67.3242 39.5996 68.9883 41.5628 70.1218C43.7864 71.4073 47.3944 71.4073 49.6036 70.1242C51.5981 68.9618 51.5981 67.2952 49.6036 66.1448C48.5014 65.5081 47.023 65.1898 45.547 65.1898Z" fill="white"/>
<path d="M44.821 71.4025C45.6892 69.42 45.5204 66.8442 45.0453 64.7243C43.8731 59.5052 40.3085 54.3995 36.1772 52.0143C31.2765 49.1901 27.4683 51.351 27.4466 56.9922C27.4466 59.3557 28.1219 62.0472 29.3471 64.5699C29.3816 64.6412 29.4017 64.7186 29.4064 64.7976C29.411 64.8766 29.4 64.9558 29.374 65.0306C29.348 65.1054 29.3076 65.1744 29.255 65.2336C29.2023 65.2927 29.1386 65.3409 29.0673 65.3755C28.9234 65.4452 28.7577 65.4549 28.6066 65.4024C28.4555 65.3499 28.3315 65.2396 28.2618 65.0957C26.9594 62.4114 26.2407 59.5342 26.2407 56.9897C26.2648 50.4129 31.0787 47.6803 36.7801 50.97C41.184 53.512 44.9801 58.9336 46.2246 64.4614C46.7552 66.849 46.9071 69.6467 45.9231 71.8872C45.6024 72.6204 44.5002 72.1284 44.821 71.4025ZM60.659 59.7946C57.8373 58.1643 57.8155 55.3473 60.6011 53.729C63.16 52.2362 67.3372 52.2434 69.9057 53.7266C72.7082 55.3473 72.7106 58.1643 69.9081 59.7922C67.3179 61.2972 63.2517 61.2875 60.659 59.7946ZM61.2089 54.7685C59.212 55.931 59.265 57.5951 61.262 58.7479C63.4856 60.0358 67.0888 60.0334 69.3028 58.7528C71.2973 57.5879 71.2973 55.9238 69.3028 54.7733C67.1008 53.5023 63.3988 53.4975 61.2089 54.7685Z" fill="white"/>
<path d="M64.5202 60.0291C64.9302 59.0957 65.1352 57.9719 65.1352 56.6864C65.1352 50.7824 61.0931 43.6532 55.874 40.6433C50.9781 37.8167 47.1675 39.9801 47.1458 45.6188C47.1458 47.9823 47.8211 50.6739 49.0463 53.1966C49.1163 53.3405 49.1263 53.5063 49.0741 53.6576C49.0219 53.8089 48.9117 53.9333 48.7677 54.0033C48.6238 54.0733 48.458 54.0833 48.3067 54.0311C48.1554 53.9789 48.031 53.8687 47.961 53.7247C46.6586 51.038 45.9399 48.1608 45.9399 45.6164C45.9641 39.0347 50.7755 36.3118 56.4794 39.5966C61.9926 42.7801 66.3435 50.288 66.3435 56.6864C66.3435 58.1407 66.0999 59.4286 65.6199 60.5139C65.3016 61.247 64.197 60.755 64.5202 60.0291ZM104.792 90.7887C104.693 90.7886 104.595 90.7642 104.508 90.7175C104.421 90.6709 104.346 90.6035 104.291 90.5213C104.236 90.439 104.202 90.3445 104.192 90.2461C104.183 90.1476 104.197 90.0482 104.235 89.9567C106.015 85.6252 105.875 82.3355 103.772 78.959C102.469 76.8801 100.578 75.1243 98.1474 73.7448C94.3609 71.5983 90.9772 71.2269 87.1811 72.5317C86.5758 72.727 86.1272 72.0059 86.5396 71.5573L138.537 14.167C140.71 12.0084 143.602 11.3573 146.906 12.2472C152.359 13.7256 157.976 19.3667 159.423 24.8294C160.299 28.1407 159.633 31.018 157.494 33.1524L105.236 90.5934C105.179 90.6542 105.11 90.7027 105.034 90.7359C104.957 90.7691 104.875 90.7887 104.792 90.7887ZM98.7431 72.6957C101.35 74.1765 103.386 76.0721 104.794 78.3199C106.654 81.3105 107.136 84.2143 106.268 87.6703L156.611 32.33C156.618 32.3252 156.625 32.3179 156.633 32.3059C158.938 30.0147 158.789 27.1447 158.258 25.1381C156.908 20.0493 151.674 14.7892 146.59 13.4121C144.588 12.867 141.711 12.7054 139.41 14.9966L88.8284 70.8314C92.405 70.1079 95.5427 70.8844 98.7431 72.6957Z" fill="white"/>
<path d="M159.42 24.8244C157.973 19.3738 152.354 13.7302 146.903 12.2591C143.599 11.3667 140.705 12.0179 138.534 14.1644L99.5603 57.2385L98.7403 58.1308C86.4065 71.9744 85.9531 71.5981 86.4885 72.2879C86.6332 72.5291 86.9226 72.6255 87.1879 72.5291C90.9744 71.2267 94.3509 71.5885 98.1373 73.7349C100.573 75.1338 102.479 76.8702 103.781 78.9685C105.879 82.3449 106.024 85.625 104.239 89.9661C104.179 90.0947 104.171 90.2413 104.216 90.3759C104.26 90.5105 104.355 90.6228 104.48 90.6897C104.577 90.762 104.673 90.7861 104.794 90.7861C104.963 90.7861 105.107 90.7138 105.228 90.5932L122.327 71.8538L123.147 70.9373L157.491 33.1449C159.637 31.0226 160.289 28.1526 159.42 24.8244ZM156.623 32.3008V32.3249L122.086 70.3102L121.266 71.2267L106.265 87.6749C107.133 84.2261 106.651 81.3079 104.794 78.3173C103.395 76.0744 101.345 74.1691 98.7403 72.6979C95.5495 70.9059 92.3877 70.0691 88.8279 70.8408L99.8015 58.7579L100.621 57.8414L139.403 15.0085C141.718 12.6932 144.588 12.862 146.59 13.4167C151.679 14.7914 156.912 20.0491 158.263 25.1379C158.793 27.1397 158.938 30.0097 156.623 32.3008Z" fill="white"/>
<path d="M82.5381 98.7114C82.1059 98.7109 81.6796 98.6104 81.2928 98.4176C80.9059 98.2247 80.569 97.9449 80.3085 97.6C80.048 97.2552 79.8709 96.8546 79.7912 96.4298C79.7114 96.005 79.7312 95.5675 79.849 95.1516C86.819 70.6794 86.2209 71.5814 86.7876 71.3909C90.9431 69.9655 94.6307 70.3659 98.7403 72.6981C101.316 74.1548 103.412 76.0987 104.791 78.3175C107.128 82.0654 107.292 85.683 105.346 90.4076C105.314 90.4856 105.266 90.556 105.206 90.6145C105.145 90.6731 105.073 90.7184 104.994 90.7477L83.498 98.5425C83.1844 98.6535 82.8588 98.7114 82.5381 98.7114ZM87.4774 72.4304L81.009 95.4772C80.9266 95.759 80.9249 96.0583 81.0042 96.341C81.0835 96.6237 81.2406 96.8784 81.4576 97.0762C81.6708 97.2789 81.9369 97.4175 82.2253 97.4759C82.5136 97.5343 82.8126 97.5103 83.088 97.4066L104.331 89.7034C106.007 85.4973 105.833 82.2704 103.769 78.9542C102.491 76.909 100.549 75.1074 98.147 73.7472C94.4618 71.6586 91.1577 71.2462 87.4774 72.4304Z" fill="white"/>
<path d="M82.5381 98.709C82.1056 98.709 81.6791 98.6087 81.2919 98.416C80.9048 98.2234 80.5676 97.9436 80.3068 97.5987C80.046 97.2537 79.8687 96.853 79.7888 96.428C79.709 96.003 79.7287 95.5653 79.8465 95.1492C86.8238 70.6795 86.2232 71.5863 86.79 71.3934C90.9382 69.9656 94.6282 70.366 98.7427 72.6957C101.35 74.1765 103.385 76.0722 104.794 78.32C107.128 82.0678 107.292 85.6855 105.349 90.4125C105.316 90.4905 105.269 90.5609 105.208 90.6194C105.147 90.678 105.075 90.7233 104.996 90.7526L83.4979 98.5426C83.1844 98.6535 82.8612 98.709 82.5381 98.709ZM87.4822 72.4328L81.009 95.4748C80.9269 95.7572 80.9256 96.057 81.0054 96.3401C81.0851 96.6231 81.2426 96.8782 81.46 97.0762C81.6733 97.278 81.9389 97.416 82.2267 97.4744C82.5145 97.5328 82.8128 97.5093 83.0879 97.4067L104.331 89.7083C106.007 85.4998 105.833 82.2728 103.771 78.9567C102.469 76.8825 100.578 75.1268 98.147 73.7472C94.4618 71.6538 91.1529 71.2438 87.4822 72.4328Z" fill="white"/>
<path d="M94.3191 93.9771L83.2925 97.9734C82.9126 98.1114 82.5021 98.142 82.106 98.0617C81.7099 97.9814 81.3436 97.7935 81.0474 97.5185C80.7512 97.2435 80.5366 96.8921 80.4272 96.5031C80.3178 96.114 80.3179 95.7023 80.4273 95.3132L83.8303 83.1965C88.5285 83.6548 94.0707 89.8675 94.3191 93.9771Z" fill="#E0AAFE"/>
<path d="M82.5381 98.7086C82.1056 98.7085 81.6791 98.6082 81.2919 98.4156C80.9048 98.2229 80.5676 97.9431 80.3068 97.5982C80.046 97.2533 79.8687 96.8526 79.7888 96.4276C79.709 96.0026 79.7287 95.5649 79.8465 95.1488L83.2519 83.0321C83.2863 82.8934 83.3703 82.7721 83.4881 82.6912C83.6059 82.6103 83.7493 82.5754 83.8911 82.5932C89.0546 83.102 94.6644 89.6234 94.9249 93.9405C94.9318 94.0704 94.8968 94.199 94.8252 94.3075C94.7536 94.416 94.649 94.4987 94.5269 94.5435L83.4979 98.5422C83.1844 98.6531 82.8612 98.7086 82.5381 98.7086ZM84.2697 83.8666L81.009 95.4744C80.9269 95.7568 80.9256 96.0565 81.0054 96.3396C81.0851 96.6227 81.2426 96.8778 81.46 97.0758C81.6733 97.2776 81.9389 97.4155 82.2267 97.4739C82.5145 97.5323 82.8128 97.5089 83.0879 97.4062L93.6708 93.5715C93.1112 89.949 88.4276 84.6432 84.2697 83.8666Z" fill="white"/>
<path d="M157.681 36.3162L144.581 50.8254H144.573C147.154 41.8608 137.779 31.9557 126.548 32.6817L139.608 18.1508C147.914 9.88809 165.987 28.0535 157.681 36.3162Z" fill="#D8FF1E"/>
<path d="M143.372 47.0779C145.791 38.6657 136.969 29.0017 125.964 29.7012C125.727 29.7421 125.491 29.5806 125.385 29.3635C125.332 29.2559 125.313 29.1349 125.33 29.0162C125.346 28.8975 125.398 28.7866 125.479 28.6979L138.536 14.167C140.709 12.0084 143.601 11.3573 146.905 12.2472C152.358 13.7256 157.975 19.3667 159.422 24.8294C160.298 28.1383 159.632 31.018 157.493 33.1524L144.406 47.6519C143.97 48.1222 143.201 47.6857 143.369 47.0803L143.372 47.0779ZM127.309 28.4591C137.752 28.6086 145.677 37.1511 144.932 45.2667L156.61 32.33C156.617 32.3252 156.624 32.3179 156.632 32.3059C158.937 30.0147 158.788 27.1447 158.257 25.1381C156.907 20.0493 151.673 14.7892 146.589 13.4121C144.587 12.867 141.71 12.7054 139.409 14.9966L127.312 28.4591H127.309ZM44.9308 94.703C44.8519 94.564 44.8309 94.3995 44.8724 94.2451C44.914 94.0907 45.0147 93.9589 45.1527 93.8782L78.3772 74.6974C78.516 74.6193 78.6799 74.5987 78.8337 74.6402C78.9876 74.6817 79.1189 74.7819 79.1996 74.9193C79.278 75.0578 79.2989 75.2216 79.2579 75.3754C79.2168 75.5291 79.1171 75.6607 78.9801 75.7417L45.7556 94.9273C45.6167 95.0069 45.452 95.0282 45.2974 94.9867C45.1428 94.9451 45.011 94.844 44.9308 94.7055V94.703ZM50.707 99.4446C50.628 99.3055 50.6071 99.141 50.6486 98.9866C50.6901 98.8322 50.7908 98.7004 50.9289 98.6197L69.0316 88.1696C69.17 88.0909 69.3339 88.0701 69.4876 88.1118C69.6412 88.1535 69.7721 88.2543 69.8517 88.3922C69.9314 88.5301 69.9532 88.6939 69.9125 88.8478C69.8718 89.0017 69.7719 89.1333 69.6345 89.2139L51.5318 99.664C51.3932 99.7438 51.2287 99.7655 51.0741 99.7244C50.9196 99.6833 50.7876 99.5827 50.707 99.4446Z" fill="white"/>
<path d="M24.9591 39.4975C22.6679 39.4975 20.7988 37.6308 20.7988 35.3372C20.7988 33.0436 22.6655 31.1769 24.9591 31.1769C27.272 31.1769 29.1508 33.0436 29.1508 35.3372C29.1508 37.6308 27.2696 39.4975 24.9591 39.4975ZM138.729 143.211C138.065 143.182 137.438 142.898 136.979 142.418C136.519 141.938 136.263 141.299 136.263 140.635C136.263 139.97 136.519 139.332 136.979 138.852C137.438 138.372 138.065 138.088 138.729 138.059C140.162 138.059 141.324 139.214 141.324 140.635C141.324 142.055 140.162 143.211 138.729 143.211ZM60.2915 20.0225C60.1923 20.023 60.0941 20.0036 60.0025 19.9655C59.911 19.9274 59.828 19.8713 59.7585 19.8006L56.5267 16.5689C56.3864 16.4275 56.3076 16.2363 56.3076 16.0371C56.3076 15.8378 56.3864 15.6467 56.5267 15.5053L59.7416 12.2928C59.8112 12.2221 59.8941 12.1659 59.9856 12.1276C60.0771 12.0892 60.1754 12.0695 60.2746 12.0695C60.3738 12.0695 60.472 12.0892 60.5635 12.1276C60.6551 12.1659 60.738 12.2221 60.8076 12.2928L64.0369 15.5197C64.1071 15.5897 64.1628 15.6727 64.2007 15.7642C64.2387 15.8557 64.2583 15.9537 64.2583 16.0528C64.2583 16.1518 64.2387 16.2498 64.2007 16.3413C64.1628 16.4328 64.1071 16.5158 64.0369 16.5857L60.8196 19.8006C60.7504 19.871 60.6678 19.9269 60.5767 19.965C60.4856 20.0031 60.3902 20.0227 60.2915 20.0225ZM59.7416 152.139C59.6627 152.139 59.5845 152.124 59.5116 152.094C59.4387 152.063 59.3726 152.019 59.3171 151.963L56.7341 149.382C56.678 149.326 56.6334 149.26 56.603 149.187C56.5726 149.113 56.557 149.035 56.557 148.955C56.557 148.876 56.5726 148.798 56.603 148.724C56.6334 148.651 56.678 148.585 56.7341 148.529L59.3051 145.96C59.3607 145.904 59.427 145.859 59.5001 145.828C59.5731 145.798 59.6515 145.782 59.7307 145.782C59.8099 145.782 59.8884 145.798 59.9614 145.828C60.0345 145.859 60.1008 145.904 60.1564 145.96L62.737 148.541C62.8497 148.654 62.9129 148.807 62.9129 148.966C62.9129 149.126 62.8497 149.279 62.737 149.392L60.1685 151.965C60.1127 152.022 60.0462 152.066 59.9729 152.097C59.8995 152.127 59.8209 152.14 59.7416 152.139ZM97.0443 32.431C96.3805 32.4023 95.7534 32.1184 95.2938 31.6385C94.8342 31.1586 94.5777 30.5198 94.5777 29.8553C94.5777 29.1908 94.8342 28.552 95.2938 28.0721C95.7534 27.5922 96.3805 27.3082 97.0443 27.2795C98.4769 27.2795 99.6394 28.4347 99.6394 29.8553C99.6394 31.2758 98.4769 32.431 97.0443 32.431ZM28.461 130.703C28.3074 130.703 28.16 130.643 28.051 130.534L25.5765 128.082C25.5227 128.028 25.4799 127.965 25.4505 127.895C25.4211 127.826 25.4057 127.751 25.4053 127.675C25.4048 127.599 25.4193 127.524 25.4479 127.454C25.4764 127.384 25.5185 127.32 25.5717 127.266L28.0148 124.799C28.0677 124.745 28.1307 124.702 28.2003 124.673C28.2699 124.643 28.3446 124.628 28.4202 124.627C28.4958 124.627 28.5707 124.641 28.6406 124.67C28.7106 124.699 28.7741 124.741 28.8276 124.794L31.3093 127.252C31.417 127.36 31.4777 127.506 31.4781 127.658C31.4786 127.81 31.4188 127.956 31.3117 128.065L28.8662 130.532C28.8135 130.586 28.7505 130.629 28.6809 130.659C28.6113 130.688 28.5365 130.703 28.461 130.703Z" fill="#E0AAFE"/>
<path d="M84.726 118.408C84.5661 118.408 84.4127 118.345 84.2996 118.231C84.1866 118.118 84.123 117.965 84.123 117.805C84.123 117.645 84.1866 117.492 84.2996 117.379C84.4127 117.266 84.5661 117.202 84.726 117.202C88.8911 117.2 89.1443 117.262 89.4796 117.065L89.6291 105.151C89.6297 104.991 89.6939 104.838 89.8074 104.725C89.9209 104.612 90.0745 104.549 90.2345 104.55C90.3944 104.551 90.5475 104.615 90.6601 104.728C90.7727 104.842 90.8356 104.996 90.835 105.155L90.765 117.055C90.765 117.916 89.8245 118.406 88.8935 118.406L84.726 118.408Z" fill="white"/>
</svg>
