<svg width="165" height="164" viewBox="0 0 165 164" fill="none" xmlns="http://www.w3.org/2000/svg">
<path d="M54.9077 98.9443L55.1761 99.5705C55.2954 99.8687 55.4146 100.152 55.5488 100.435C55.5786 100.495 55.6084 100.569 55.6383 100.629C55.9514 101.3 56.3092 101.956 56.6819 102.567C56.8012 102.761 56.9055 102.94 57.0397 103.119L56.9801 103.298L56.9204 103.492L56.8161 103.805L56.7714 103.939L56.6968 104.192C56.8906 104.341 57.0844 104.476 57.2932 104.61C57.5019 104.729 57.7106 104.863 57.9194 104.983L59.0226 105.624L54.9077 98.9443Z" fill="black"/>
<path d="M70.4131 40.8137C66.0001 45.9574 62.1386 51.8614 59.127 58.0785C59.9172 56.4086 60.7521 54.7388 61.6764 53.0988C61.8703 52.7559 62.079 52.3832 62.2878 52.0403C62.3324 51.9658 62.3772 51.8911 62.4219 51.8166C62.7052 51.3246 63.0034 50.8327 63.3164 50.3406C63.6295 49.8039 63.9724 49.2821 64.3303 48.7453C64.6881 48.1937 65.0459 47.657 65.4336 47.1203C65.4782 47.0457 65.5379 46.9712 65.5826 46.8966C66.1045 46.1661 66.6263 45.4504 67.1779 44.7348C67.7295 44.0192 68.2961 43.3036 68.8776 42.6028C69.3696 41.9916 69.8914 41.3952 70.4131 40.8137ZM102.527 23.6533L103.019 23.6981C102.93 23.6832 102.855 23.6832 102.766 23.6832C102.691 23.6682 102.602 23.6533 102.527 23.6533Z" fill="black"/>
<path d="M110.241 26.0774L110.226 26.0923C110.091 26.0028 109.957 25.9283 109.823 25.8538C109.808 25.8538 109.808 25.8389 109.793 25.8389C109.749 25.809 109.704 25.7792 109.644 25.7494C109.599 25.7196 109.54 25.6897 109.48 25.66C109.152 25.4811 108.809 25.3021 108.451 25.153C108.228 25.0486 108.019 24.9592 107.795 24.8697C107.572 24.7803 107.333 24.6908 107.095 24.6163C106.871 24.5268 106.633 24.4672 106.394 24.3926C106.066 24.2883 105.753 24.1988 105.41 24.1392C105.38 24.1243 105.335 24.1094 105.306 24.1094C105.231 24.0796 105.156 24.0647 105.082 24.0497C105.052 24.0497 105.007 24.0348 104.978 24.0348C104.784 23.9901 104.605 23.9603 104.411 23.9304C104.366 23.9155 104.322 23.9155 104.262 23.9006H104.217C104.038 23.8708 103.859 23.841 103.681 23.8261C103.651 23.8112 103.636 23.8112 103.606 23.8112C103.576 23.8112 103.546 23.7963 103.517 23.7963C103.487 23.7963 103.457 23.7963 103.427 23.7814C103.293 23.7814 103.159 23.7665 103.039 23.7515C102.95 23.7366 102.861 23.7217 102.786 23.7217C102.711 23.7217 102.622 23.7069 102.547 23.7069C102.398 23.6919 102.249 23.677 102.1 23.677C101.936 23.6621 101.757 23.6621 101.593 23.6621C100.863 23.6322 100.102 23.6621 99.342 23.7217C99.0737 23.7515 98.8053 23.7814 98.522 23.8112C98.0001 23.8708 97.4634 23.9454 96.9267 24.0497C96.6584 24.0944 96.3751 24.1541 96.1068 24.2137C95.8383 24.2733 95.555 24.333 95.2867 24.4076C95.1525 24.4374 95.0183 24.4672 94.8693 24.5119C94.7947 24.5268 94.7053 24.5566 94.6307 24.5865C94.5711 24.6014 94.5115 24.6163 94.4518 24.6312C94.4368 24.6312 94.4071 24.6461 94.3922 24.6461C94.2431 24.6908 94.094 24.7207 93.9449 24.7803C93.7511 24.825 93.5722 24.8847 93.3784 24.9592C93.2591 24.989 93.1249 25.0337 92.9907 25.0785C92.6776 25.1829 92.3496 25.3021 92.0365 25.4214C91.7383 25.5257 91.4253 25.645 91.1121 25.7792C91.0078 25.8239 90.9034 25.8686 90.7842 25.9134C90.5904 25.9879 90.4115 26.0624 90.2326 26.1519C89.9344 26.2712 89.6212 26.4202 89.3081 26.5694C88.9951 26.7035 88.6969 26.8527 88.3838 27.0166C88.0558 27.1657 87.7278 27.3447 87.3998 27.5236C87.0718 27.6876 86.7438 27.8665 86.4158 28.0603C86.3115 28.1199 86.1922 28.1796 86.0878 28.2392C85.5212 28.5672 84.9547 28.9101 84.4031 29.2679C84.3435 29.2829 84.2838 29.3275 84.2242 29.3723C84.1049 29.4319 83.9857 29.5214 83.8664 29.5959C83.4787 29.8345 83.106 30.073 82.7332 30.3413C82.6886 30.3563 82.6587 30.3861 82.6139 30.416C82.1518 30.729 81.6896 31.0421 81.2423 31.3701C81.2274 31.3701 81.2274 31.3701 81.2274 31.385C80.9292 31.5788 80.6311 31.8025 80.3329 32.0261C80.0795 32.2199 79.811 32.4137 79.5576 32.6225C78.7525 33.2188 77.9474 33.86 77.1871 34.5308C76.8144 34.8439 76.4417 35.172 76.0689 35.4999C75.2042 36.2454 74.3693 37.0207 73.5641 37.8407C73.3107 38.0792 73.0722 38.3178 72.8336 38.5712C72.267 39.1527 71.7154 39.749 71.1638 40.3454C70.9998 40.5243 70.8358 40.7032 70.6867 40.8821C70.1649 41.4636 69.6431 42.06 69.1511 42.6712C68.5696 43.372 68.0031 44.0876 67.4514 44.8032C66.8998 45.5188 66.378 46.2345 65.8561 46.965C65.8115 47.0395 65.7518 47.1141 65.7071 47.1887C65.3194 47.7254 64.9616 48.2621 64.6038 48.8137C64.2459 49.3504 63.9031 49.8723 63.5899 50.409C63.2769 50.901 62.9787 51.393 62.6954 51.885C62.6507 51.9595 62.606 52.0341 62.5613 52.1087C62.3525 52.4516 62.1438 52.8243 61.95 53.1672C61.0256 54.8072 60.1907 56.477 59.4005 58.1468C59.4005 58.1618 59.4005 58.1618 59.3857 58.1767C54.9427 67.316 52.3187 77.0963 52.3485 86.0566C52.3485 87.0407 52.3784 88.0097 52.438 88.949C52.4678 89.3515 52.4977 89.7541 52.5423 90.1418C52.8256 92.8701 53.3922 95.36 54.1823 97.5963L54.2121 97.6858L55.0321 99.6538L55.1962 100.012L55.8224 101.517L55.867 101.383L57.2238 103.247L57.6561 104.127L57.522 104.365L57.4623 104.335C57.4623 104.35 57.4772 104.35 57.4772 104.365C57.522 104.499 57.5816 104.618 57.6711 104.738C57.8201 105.006 58.0289 105.245 58.2525 105.468C58.2972 105.513 58.342 105.558 58.3867 105.602L58.0139 105.379C57.6561 105.17 57.3133 104.946 56.9704 104.708C51.2303 100.787 48.0845 93.3472 48.0547 83.5817V83.4624C48.0547 74.6959 50.5893 65.1541 54.8682 56.1937C56.8808 51.9744 59.2664 47.9043 61.9798 44.1025C62.8296 42.865 63.7391 41.6574 64.6784 40.4796C67.7795 36.5883 71.1936 33.0847 74.8165 30.1327C76.874 28.4479 79.006 26.957 81.1827 25.6748C81.3318 25.5705 81.466 25.4959 81.6151 25.4064C90.7394 20.1436 99.342 19.3236 105.827 23.0806L110.106 25.5705C110.285 25.6748 110.345 25.9134 110.241 26.0774Z" fill="black"/>
<path d="M91.6596 15.3789C85.5767 11.8604 77.1531 12.3375 67.8498 17.7197C49.3327 28.3946 34.3938 54.2917 34.4683 75.5372C34.4832 83.1408 36.4214 89.1193 39.761 93.1746C39.9847 93.4728 40.2381 93.756 40.5214 94.0393V94.8742L39.9399 94.5313C39.8803 94.5015 39.8356 94.4716 39.776 94.427C33.8571 90.9084 30.2043 83.5135 30.1745 73.0622C30.1149 51.8018 45.0687 25.9047 63.541 15.2149C72.8592 9.84771 81.2829 9.34076 87.3807 12.8891L91.6596 15.3789Z" fill="black"/>
<path d="M52.4478 85.4366C52.4478 85.3173 52.4478 85.1831 52.4627 85.0638C52.4627 85.3173 52.4478 85.5708 52.4478 85.8242V85.4366ZM52.4776 84.2588C52.4776 84.1097 52.4925 83.9606 52.5074 83.8264C52.4925 84.1097 52.4925 84.393 52.4776 84.6613C52.4627 84.557 52.4627 84.4675 52.4776 84.3781C52.4627 84.3333 52.4627 84.3035 52.4776 84.2588ZM53.9536 73.6137C53.9536 73.5839 53.9685 73.5391 53.9834 73.5093C53.9536 73.6137 53.9387 73.718 53.9237 73.8373C53.8194 74.3144 53.7299 74.7766 53.6554 75.2388C53.5809 75.5667 53.5361 75.8799 53.4765 76.1781C52.9696 78.7872 52.6416 81.3515 52.5074 83.8264C52.5074 83.4537 52.5223 83.0958 52.5521 82.7231C52.582 82.2013 52.6267 81.6795 52.6864 81.1576C52.731 80.6209 52.7906 80.0992 52.8653 79.5624C52.9249 79.0406 52.9994 78.5039 53.0888 77.9672C53.2231 77.162 53.3572 76.357 53.5361 75.537C53.5809 75.2835 53.6255 75.045 53.6852 74.7915C53.7598 74.4039 53.8492 74.0013 53.9536 73.6137ZM54.5201 98.0347C54.6096 98.2584 54.699 98.482 54.8034 98.7057C54.7437 98.6162 54.699 98.5119 54.6692 98.4224C54.5648 98.169 54.4605 97.9155 54.371 97.6471C54.4158 97.7813 54.4605 97.9155 54.5201 98.0347Z" fill="black"/>
<path d="M81.431 25.7257C81.267 25.681 81.0881 25.6363 80.9092 25.6064C79.7015 25.3231 78.4193 25.2337 77.0626 25.3083C76.8092 25.3231 76.5557 25.353 76.3022 25.3828C76.2426 25.3828 76.1829 25.3828 76.1233 25.3978C75.8251 25.4275 75.5269 25.4723 75.2139 25.5319C75.1691 25.5319 75.1244 25.5468 75.0648 25.5617C74.7517 25.6064 74.4386 25.681 74.1106 25.7556C73.3949 25.9195 72.6644 26.1432 71.919 26.4116C71.6506 26.501 71.3823 26.6054 71.099 26.7098C70.8902 26.7843 70.6815 26.8738 70.4579 26.9781C70.279 27.0377 70.1001 27.1272 69.9212 27.2017C69.6527 27.321 69.3696 27.4552 69.1011 27.6043C68.5048 27.8726 67.9084 28.2007 67.3121 28.5436C66.9691 28.7374 66.6412 28.9461 66.3131 29.1548C62.9437 31.257 59.7532 34.0599 56.8906 37.34C56.5925 37.6679 56.3092 38.0108 56.0259 38.3538C55.5935 38.8606 55.1612 39.3973 54.7437 39.9491C54.3709 40.4112 54.0131 40.9032 53.6702 41.3952C53.2975 41.8872 52.9546 42.3941 52.6117 42.9159C51.8811 43.9894 51.1954 45.1075 50.5394 46.2406C50.1666 46.8668 49.8088 47.5079 49.4808 48.1491C49.0485 48.9541 48.6459 49.7592 48.2732 50.5792C48.1389 50.8624 48.0048 51.1457 47.8855 51.429C47.4233 52.4428 47.0059 53.4567 46.6183 54.4854C46.5586 54.6345 46.499 54.7985 46.4394 54.9476C46.4095 55.0519 46.3648 55.1563 46.335 55.2606C46.1262 55.8272 45.9473 56.4087 45.7386 56.9752V56.9901C45.6491 57.2436 45.5746 57.497 45.5001 57.7504C42.1902 67.7843 40.1328 78.2356 40.0732 87.0916C40.0582 87.3599 40.0582 87.6283 40.0582 87.9116C40.0732 89.969 40.1477 91.9967 40.1477 94.0541C40.1626 96.6334 40.0732 99.2872 39.6259 102.03C38.4779 109.112 34.9444 116.284 30.8295 120.488C29.8306 121.502 28.8168 122.337 27.7881 123.008C28.0415 124.111 28.3397 125.14 28.7124 126.124C30.263 125.199 31.7241 124.051 33.0659 122.665C34.8699 120.831 36.5397 118.505 37.9859 115.926L49.123 122.396C47.9451 124.513 46.5884 126.407 45.1274 127.883C44.1136 128.926 43.0699 129.761 42.0262 130.358C40.6993 131.118 39.3724 131.536 38.1797 131.536C37.5088 131.536 36.8527 131.401 36.2714 131.133C36.1222 131.073 35.9433 130.984 35.7943 130.895L29.0404 126.973C30.263 130.015 32.0222 132.341 34.199 133.593C34.4673 133.742 34.7357 133.876 35.004 134.01C37.5386 135.114 40.5652 134.816 43.5917 133.071C44.859 132.341 46.1262 131.342 47.3637 130.074C51.4935 125.885 55.0269 118.714 56.16 111.647C56.5477 109.232 56.667 106.936 56.6968 104.654V104.192L55.6829 102.925C54.1026 101.613 52.7757 99.9581 51.7172 98.0348L50.599 96.6483L50.2859 96.4694L43.2637 92.3992C43.2488 91.7879 43.2488 91.1767 43.2339 90.5653C43.219 89.6708 43.204 88.7763 43.1891 87.8817C43.1891 87.7028 43.1891 87.4791 43.204 87.2705V87.1064C43.2339 83.8712 43.547 80.3377 44.0986 76.6403C44.2477 76.7298 47.975 78.8767 48.3477 79.1003C48.4819 77.5199 48.7055 75.9098 48.9888 74.2996L48.6608 74.1057L44.9485 71.9588C45.8728 67.4265 47.1251 62.7152 48.7055 57.989L48.7353 57.9145L52.7608 60.2552L53.0738 60.4341C53.6404 59.0476 54.2368 57.661 54.8928 56.3043C54.848 56.2744 54.7437 56.2148 54.5946 56.1254C53.5957 55.5588 50.4648 53.74 50.3306 53.6653C52.1346 49.3864 54.5797 45.2418 57.4423 41.5592L61.7063 44.0341L62.0045 44.213C62.8691 42.9756 63.7787 41.7679 64.7178 40.605C64.6732 40.5752 64.5688 40.5155 64.4048 40.4112C63.4208 39.8447 60.5433 38.1749 60.4092 38.1002C63.048 35.2973 65.9255 32.9567 68.8775 31.2421C70.3535 30.4072 71.8146 29.7512 73.1863 29.2741L74.543 30.0643L74.8709 30.2581L74.7368 30.3923C76.8986 28.633 79.135 27.0676 81.431 25.7257ZM43.219 97.5428L53.5659 103.566V103.685C53.5659 105.832 53.5063 108.426 53.0738 111.155C52.6863 113.57 51.9855 116.015 51.0462 118.341L39.9389 111.885C41.2212 108.874 42.2052 105.668 42.7121 102.522C43.0102 100.778 43.1444 99.0934 43.219 97.5428ZM89.303 31.3912C89.78 32.3155 90.0485 33.5083 90.0485 34.8948C90.0485 35.1036 90.0485 35.3272 90.0186 35.5509C88.0655 36.0726 85.9931 36.9374 83.8612 38.1749C81.9527 39.2632 80.104 40.5901 78.3298 42.1108C79.7313 38.1897 82.5641 34.4327 85.8292 32.5392C87.0517 31.8236 88.2295 31.4509 89.303 31.3912Z" fill="black"/>
<path d="M66.9693 56.0956C65.9853 57.9742 64.5391 60.4044 65.046 61.0902C65.1653 61.2542 65.2994 61.4331 65.4187 61.6269C64.1663 63.2222 63.0184 65.1604 62.0642 67.4266C61.3783 68.992 60.7373 71.4968 60.2602 73.5989C60.1707 73.9419 60.0962 74.2698 60.0366 74.583C59.8129 74.3146 59.6191 74.0164 59.485 73.7033C59.0079 71.3924 58.9184 68.6789 59.2017 66.204C59.3657 65.5778 59.5744 64.9367 59.8278 64.2956C60.5733 62.3276 61.6467 60.4938 62.8991 58.9284C64.1515 57.348 65.6126 56.036 67.1482 55.1117C67.1929 55.0669 67.2525 55.0222 67.342 54.9924C67.4165 54.9477 67.4762 54.9179 67.5507 54.8731C67.4017 55.231 67.2078 55.6484 66.9693 56.0956ZM92.8813 32.7927C92.9558 32.8673 93.0304 32.9568 93.09 33.0611C93.0304 32.9716 92.9558 32.8822 92.8813 32.8076C92.8813 32.8076 92.8813 32.8076 92.8813 32.7927ZM93.7162 34.1197C93.7609 34.2091 93.8056 34.3135 93.8355 34.4179C93.7907 34.2539 93.7162 34.0898 93.6267 33.9408C93.6715 34.0004 93.6864 34.0601 93.7162 34.1197Z" fill="black"/>
<path d="M94.0142 34.9247H93.9993C93.9993 34.8949 93.9993 34.8651 93.9844 34.8352C93.9993 34.8651 93.9993 34.8949 94.0142 34.9247Z" fill="black"/>
<path d="M81.4585 69.2392C81.4657 72.0776 83.4726 73.222 85.943 71.7957C88.4134 70.3693 90.4083 66.9146 90.3988 64.0763C90.3916 61.2379 88.3847 60.0935 85.9143 61.5199C83.4439 62.9438 81.449 66.4009 81.4585 69.2392Z" fill="#7D60E5"/>
<path opacity="0.1" d="M138.697 149.233C128.306 155.256 111.429 155.256 100.977 149.233C97.2501 147.086 94.8349 144.447 93.7764 141.659L95.9233 141.808C97.1756 143.269 98.8603 144.641 100.962 145.848C105.584 148.517 111.459 149.993 117.467 150.306C117.825 150.321 118.183 150.336 118.54 150.351C118.63 150.366 118.704 150.366 118.794 150.366H119.39C119.673 150.366 119.957 150.366 120.24 150.351C121.448 150.336 122.685 150.276 123.937 150.172C124.221 150.157 124.504 150.127 124.787 150.097C133.52 149.227 136.355 146.773 138.668 145.833C142.164 143.806 145.494 140.687 146.271 136.635C146.286 136.709 146.301 136.798 146.316 136.903C147.032 141.301 144.497 145.848 138.697 149.233Z" fill="#2F2F2F"/>
<path d="M133.629 148.161C131.099 149.06 128.146 149.762 124.787 150.097C124.504 150.127 124.22 150.157 123.937 150.172C122.685 150.276 121.447 150.336 120.24 150.351C119.956 150.366 119.673 150.366 119.39 150.366C119.106 150.366 118.823 150.351 118.54 150.351C118.182 150.336 117.824 150.321 117.466 150.306C111.458 149.993 105.584 148.517 100.962 145.848C98.8599 144.64 97.1752 143.269 95.9229 141.808L100.023 142.106C100.157 142.18 100.291 142.255 100.425 142.33C100.604 142.434 100.783 142.553 100.977 142.657C101.081 142.717 101.186 142.777 101.305 142.836C102.572 143.552 103.929 144.178 105.36 144.715C115.722 148.591 129.662 147.906 138.697 142.657C143.841 139.661 146.435 135.74 146.435 131.804L146.42 134.994C146.42 135.531 146.375 136.083 146.271 136.619C146.271 136.619 146.271 136.619 146.271 136.634C145.647 139.887 143.44 142.452 140.799 144.432C140.784 144.432 140.769 144.447 140.754 144.462C140.389 144.733 139.998 145.006 139.581 145.276C137.658 146.409 135.557 147.446 133.629 148.161Z" fill="black"/>
<path d="M123.938 150.172C122.715 150.291 121.478 150.351 120.24 150.351C121.448 150.336 122.685 150.276 123.938 150.172Z" fill="black"/>
<path d="M138.637 126.705C137.757 127.212 136.848 127.689 135.879 128.092C134.716 128.614 133.493 129.061 132.211 129.448C128.037 130.716 123.4 131.297 118.793 131.193C117.571 131.163 116.348 131.088 115.125 130.954C112.874 130.731 110.668 130.328 108.551 129.762C105.807 129.016 103.243 128.002 100.977 126.69C100.365 126.347 99.7989 125.975 99.2622 125.587C99.2622 125.587 99.2622 125.587 99.2473 125.587C98.4273 125.498 97.6072 125.423 96.7872 125.363C96.3549 125.334 95.9374 125.304 95.5051 125.304C95.5051 125.304 95.4901 125.289 95.4752 125.289C94.0142 125.214 92.5531 125.185 91.0919 125.244C85.6353 125.468 80.432 126.944 76.5705 129.195C74.7814 130.224 73.3054 131.431 72.2021 132.743V149.024C73.2905 147.772 74.7218 146.624 76.4513 145.625C80.3127 143.374 85.516 141.898 90.9727 141.674C94.0142 141.555 97.0407 141.778 100.067 142.106C102.602 142.39 105.121 142.718 107.656 142.971C111.667 143.374 115.737 143.538 119.807 143.493H119.852C126.248 143.493 132.435 142.032 136.848 139.467C140.605 137.291 142.752 134.473 142.752 131.774V126.824L138.637 126.705ZM80.9389 140.273C78.9262 140.899 77.3905 141.599 75.3331 143.388V133.981C76.1083 133.221 77.0476 132.535 78.1359 131.909C79.0007 131.402 79.94 130.939 80.9389 130.537V140.273ZM98.0396 138.767C96.2654 138.618 94.4614 138.513 92.6575 138.513C92.0611 138.513 91.4498 138.528 90.8534 138.543C88.7364 138.632 86.6341 138.886 84.6214 139.318V129.344C86.7385 128.792 88.9749 128.465 91.2262 128.375C91.7479 128.345 92.2698 128.345 92.7916 128.345C93.9695 128.345 95.2069 128.39 96.5636 128.479C97.0556 128.524 97.5476 128.554 98.0396 128.599V138.767ZM115.125 140.302C112.695 140.243 110.295 140.094 107.969 139.855C106.538 139.721 105.121 139.542 103.705 139.378C103.288 139.333 102.855 139.274 102.423 139.229C102.408 139.229 102.393 139.214 102.378 139.214C102.155 139.184 101.931 139.169 101.707 139.139V130.283C106.064 132.488 110.542 133.734 115.125 134.145V140.302ZM139.621 131.774C139.621 133.161 138.175 134.935 135.879 136.381V131.267L139.621 129.285V131.774ZM132.167 132.55H132.211V138.215C128.648 139.602 124.324 140.362 119.852 140.362H118.793V134.383" fill="black"/>
<path d="M146.435 115.836L146.42 119.012C146.405 122.948 143.825 126.869 138.667 129.866C137.087 130.79 135.342 131.565 133.494 132.206L133.136 132.296C133.091 132.117 133.195 131.923 133.374 131.863C139.174 129.821 145.57 125.766 146.017 119.638C144.094 124.26 138.801 127.584 133.971 129.254C126.635 132.117 114.976 132.415 106.478 129.523C103.631 128.554 101.454 127.48 99.9481 126.511V128.807C104.376 131.729 110.012 133.265 115.23 133.787C115.23 133.802 115.245 133.802 115.245 133.802C119.404 134.219 123.743 134.055 127.932 133.28C128.141 133.235 128.305 133.369 128.35 133.563L127.992 133.652C125.13 134.189 122.148 134.428 119.166 134.383C119.166 134.174 119.002 134.01 118.793 134.01C118.584 134.01 118.42 134.174 118.42 134.383C112.069 134.174 105.822 132.668 100.962 129.866C95.699 126.824 93.075 122.843 93.0899 118.863L93.1048 115.717C93.1048 119.683 95.7437 123.663 100.977 126.69C111.428 132.713 128.305 132.713 138.697 126.675C143.84 123.678 146.435 119.757 146.435 115.836Z" fill="black"/>
<path d="M119.166 134.383H118.421C118.421 134.174 118.585 134.01 118.794 134.01C119.002 134.01 119.166 134.174 119.166 134.383Z" fill="black"/>
<path d="M121.823 114.554C122.978 115.22 122.998 116.295 121.85 116.962C120.703 117.629 118.847 117.621 117.692 116.954C116.55 116.295 116.531 115.22 117.678 114.554C118.826 113.887 120.682 113.895 121.823 114.554Z" fill="#D8FF1E"/>
<path d="M136.529 60.8057C137.461 61.3443 138.215 62.6492 138.212 63.7177C138.209 64.7896 137.45 65.2218 136.518 64.6832C135.585 64.1446 134.834 62.8414 134.837 61.7694C134.84 60.701 135.596 60.2671 136.529 60.8057Z" fill="#7D60E5"/>
<path d="M150.935 79.6813L136.524 71.3621L140.318 66.6553L142.845 72.7486L146.294 68.4772L150.935 79.6813Z" fill="#D8FF1E"/>
<path d="M138.212 35.514C137.057 35.514 136.118 34.5749 136.118 33.4203C136.118 32.2658 137.057 31.3267 138.212 31.3267C139.385 31.3267 140.306 32.2461 140.306 33.4203C140.306 34.5749 139.366 35.514 138.212 35.514ZM138.212 32.0721C137.468 32.0721 136.864 32.6771 136.864 33.4203C136.864 34.1636 137.468 34.7686 138.212 34.7686C138.956 34.7686 139.56 34.1636 139.56 33.4203C139.56 32.6647 138.967 32.0721 138.212 32.0721Z" fill="#B0B8CF"/>
<path d="M49.5506 144.974C50.5008 144.974 51.2711 144.204 51.2711 143.254C51.2711 142.304 50.5008 141.533 49.5506 141.533C48.6004 141.533 47.8301 142.304 47.8301 143.254C47.8301 144.204 48.6004 144.974 49.5506 144.974Z" fill="#7D60E5"/>
<path d="M142.753 88.602C142.958 88.602 143.125 88.4353 143.125 88.2293V86.1677C143.125 85.9616 142.958 85.7949 142.753 85.7949C142.547 85.7949 142.38 85.9616 142.38 86.1677V88.2293C142.38 88.4353 142.547 88.602 142.753 88.602ZM142.38 92.2143C142.38 92.4203 142.547 92.587 142.753 92.587C142.958 92.587 143.125 92.4203 143.125 92.2143V90.1534C143.125 89.9473 142.958 89.7806 142.753 89.7806C142.547 89.7806 142.38 89.9473 142.38 90.1534V92.2143ZM142.38 96.2C142.38 96.406 142.547 96.5727 142.753 96.5727C142.958 96.5727 143.125 96.406 143.125 96.2V94.1383C143.125 93.9323 142.958 93.7656 142.753 93.7656C142.547 93.7656 142.38 93.9323 142.38 94.1383V96.2ZM142.38 99.0268L141.598 99.4788C141.42 99.5815 141.359 99.8093 141.461 99.9877C141.568 100.169 141.798 100.225 141.971 100.124L142.939 99.5647C143.054 99.4985 143.125 99.3755 143.125 99.2422V98.1241C143.125 97.918 142.958 97.7513 142.753 97.7513C142.547 97.7513 142.38 97.918 142.38 98.1241V99.0268ZM138.452 102.155L140.272 101.104C140.449 101.002 140.51 100.774 140.409 100.596C140.304 100.416 140.072 100.357 139.899 100.459L138.079 101.51C137.901 101.613 137.84 101.84 137.942 102.019C138.049 102.201 138.279 102.256 138.452 102.155ZM61.0875 109.944C60.9841 109.765 60.7555 109.706 60.5779 109.809L59.6111 110.37C59.3638 110.516 59.366 110.872 59.6111 111.015L60.5779 111.577C60.7584 111.681 60.986 111.619 61.0875 111.442C61.1909 111.264 61.1312 111.036 60.9535 110.932L60.5415 110.693L60.9535 110.454C61.1312 110.351 61.1909 110.122 61.0875 109.944ZM71.845 117.253L69.9664 116.164C69.7875 116.06 69.549 116.12 69.4596 116.299C69.3552 116.477 69.4148 116.716 69.5937 116.82L71.4573 117.909C71.6246 117.992 71.859 117.967 71.9792 117.774C72.0835 117.596 72.0239 117.357 71.845 117.253ZM62.7057 111.945C62.5268 111.841 62.3031 111.9 62.1988 112.079C62.0945 112.258 62.1541 112.497 62.333 112.601L64.2115 113.689C64.3955 113.782 64.6097 113.729 64.7184 113.555C64.8228 113.376 64.7632 113.153 64.5843 113.048L62.7057 111.945ZM80.3432 122.635C80.2388 122.814 80.2984 123.037 80.4773 123.142L82.3559 124.23C82.5848 124.345 82.7561 124.267 82.8628 124.096C82.9672 123.917 82.9075 123.693 82.7286 123.589L80.8501 122.501C80.6712 122.396 80.4476 122.456 80.3432 122.635ZM76.7054 120.518C76.601 120.697 76.6606 120.935 76.8395 121.04L78.7181 122.128C78.9053 122.221 79.1403 122.163 79.225 121.994C79.3294 121.815 79.2697 121.576 79.0908 121.472L77.2272 120.384C77.0333 120.279 76.8097 120.339 76.7054 120.518ZM73.0825 118.416C72.9781 118.595 73.0377 118.818 73.2166 118.923L75.0952 120.011C75.2418 120.121 75.4752 120.08 75.6021 119.877C75.7065 119.698 75.6468 119.474 75.4679 119.37L73.5893 118.281C73.4104 118.177 73.1868 118.237 73.0825 118.416ZM66.3286 114.062C66.1497 113.958 65.926 114.017 65.8218 114.196C65.7174 114.375 65.777 114.599 65.9559 114.703L67.8344 115.792C68.0001 115.916 68.252 115.836 68.3414 115.657C68.4457 115.479 68.3861 115.255 68.2072 115.15L66.3286 114.062ZM53.7603 103.238L43.4133 97.2149C43.1433 97.08 42.8615 97.2658 42.8472 97.5257C42.8472 97.5251 42.8472 97.5262 42.8472 97.5257C42.8472 97.526 42.8468 97.5277 42.8468 97.528C42.6106 102.488 41.6786 106.839 39.5966 111.736C39.5959 111.74 39.596 111.739 39.596 111.74C39.5264 111.905 39.6241 112.128 39.7457 112.213L50.853 118.669C51.0825 118.783 51.3091 118.675 51.3778 118.494C51.3807 118.488 51.3897 118.487 51.3922 118.481C53.4654 113.349 53.9392 109.202 53.9392 103.685C53.915 103.536 53.9713 103.389 53.7603 103.238ZM50.8612 117.8L40.4166 111.721C42.3985 106.965 43.2636 102.907 43.5621 98.173L53.1932 103.78C53.1897 108.843 52.732 112.997 50.8612 117.8ZM96.1468 52.4429C97.7749 55.6981 101.358 55.7838 104.475 53.9428C109.589 50.9529 113.114 44.1389 113.114 38.9798C113.114 35.3595 111.286 32.3634 107.709 32.6008C107.707 32.6009 107.704 32.5986 107.701 32.5988C107.7 32.599 107.703 32.5987 107.69 32.5998C107.689 32.5999 107.689 32.6004 107.688 32.6005C100.344 32.9932 92.9365 45.8895 96.1468 52.4429ZM112.368 38.9798C112.368 44.0131 108.862 50.514 104.098 53.3C102.338 54.3423 100.006 54.8939 98.2889 53.8146C98.1599 53.6634 97.4985 52.8865 97.2351 52.5771C104.194 51.3021 110.842 39.8518 108.287 33.3365C111.132 33.4718 112.368 36.1187 112.368 38.9798ZM107.469 33.3632C108.735 36.1863 107.831 40.0566 106.518 42.9274C105.438 40.2959 103.837 38.1646 101.809 36.7449C101.809 36.6422 101.805 36.5411 101.802 36.4427C103.356 34.9869 105.344 33.6047 107.469 33.3632ZM86.0832 52.3683C90.9291 49.5668 94.7302 42.795 94.7159 37.3986C94.7159 33.7972 92.8765 30.8008 89.2887 31.0185C89.2865 31.0186 89.2842 31.0192 89.282 31.0193C89.2811 31.0194 89.2803 31.0192 89.2794 31.0193C89.2788 31.0193 89.2784 31.0199 89.2778 31.0199C84.4527 31.2725 79.691 37.2137 77.9726 41.9916C77.97 41.999 77.9683 42.0065 77.9657 42.0139C77.9656 42.0142 77.9658 42.0135 77.9657 42.0139C74.9397 50.4246 79.3699 56.225 86.0832 52.3683ZM89.0723 31.7974C89.4639 32.6606 89.7237 33.8673 89.6592 35.2636C86.6007 36.1244 83.0259 37.8653 79.2323 40.8836C80.9378 37.043 84.8931 32.232 89.0723 31.7974ZM93.9701 37.3996C93.9851 42.6872 90.2446 49.1052 85.7104 51.7123C80.7333 54.5854 79.0727 51.1861 78.8678 51.0024C78.8872 50.9991 78.9079 50.9893 78.9274 50.9857C86.0405 49.693 92.3112 38.0367 89.8892 31.7983C92.7717 31.9469 93.9701 34.5436 93.9701 37.3996ZM67.7301 75.1495C73.3083 71.9581 77.5561 63.4094 76.1042 57.8242C75.9051 56.736 75.2541 55.7532 74.478 54.9649C72.6792 53.2154 69.0025 53.6889 67.1181 55.1279C67.1099 55.1339 67.1057 55.1437 67.0982 55.1503C63.8252 57.1036 61.1679 60.7589 59.8283 64.2956C58.3075 68.2018 58.2778 71.8993 59.7388 74.1953C61.1059 76.308 64.1612 77.2228 67.7301 75.1495ZM60.365 73.7927C60.3625 73.7888 60.361 73.7839 60.3585 73.7799C67.138 72.9697 74.038 61.3393 71.6171 54.6958L73.2868 55.0398C74.5043 55.7198 75.3614 57.2823 75.4695 58.4279C76.5317 64.0995 72.2714 71.703 67.3573 74.4935C64.8423 75.9647 61.903 76.1666 60.365 73.7927ZM60.5141 64.5639C61.7382 61.3838 63.8102 58.5458 66.2157 56.6699C63.253 62.0194 61.2203 67.6364 60.3157 73.0322C60.2692 73.0384 60.0588 73.0638 59.9977 73.0701C58.9233 70.5539 59.5147 67.1335 60.5141 64.5639ZM80.8065 102.088C82.5616 102.623 84.8171 101.984 86.2131 101.099C91.6408 97.9006 95.5087 90.2771 94.7458 84.7079C94.7451 84.703 94.7442 84.6921 94.7436 84.6884C94.7432 84.6832 94.7412 84.678 94.7408 84.6728C94.0336 79.6636 89.6656 78.2029 84.8997 81.496C84.8964 81.4984 84.893 81.5012 84.8896 81.5036C80.4738 84.5612 77.1372 90.7766 77.1526 95.9029C77.1526 98.6227 78.2476 101.385 80.8065 102.088ZM77.8981 95.9029C77.898 95.878 77.901 95.8524 77.9011 95.8275C81.6743 94.8414 84.9974 92.8892 88.0452 90.5523C86.2291 94.286 82.4663 98.6193 78.4722 99.0188C78.0971 98.157 77.8981 97.1063 77.8981 95.9029ZM78.8428 99.7215C85.9936 98.6669 92.3848 87.0809 90.0954 80.675C90.0903 80.6607 90.0889 80.643 90.0837 80.6287L91.7824 80.9891C93.1163 81.6124 93.9552 83.7624 94.0608 85.2402C94.5062 91.0177 90.4075 97.7873 85.8447 100.435C83.3398 101.886 80.4132 102.178 78.8428 99.7215ZM112.72 60.4014C111.386 56.5852 107.61 56.111 104.123 58.1531C97.9966 61.6581 93.6303 71.417 96.2213 76.8043C96.2261 76.813 96.2346 76.8162 96.2398 76.8243C97.7556 79.8333 101.025 80.1582 104.033 78.5777C104.183 78.4505 108.919 76.3475 111.768 69.6388C112.953 67.0567 113.705 63.092 112.72 60.4014ZM107.055 66.234C105.985 69.0128 104.21 71.5952 102.157 73.4561C104.892 68.3033 106.756 62.9466 107.584 57.8309C108.64 60.3316 108.043 63.6734 107.055 66.234ZM111.085 69.3382C108.327 75.8365 103.831 77.794 103.682 77.9203C101.359 79.1331 98.5927 79.1975 97.1692 76.9572C101.87 76.2706 106.024 70.9827 107.751 66.5019C108.796 63.7928 109.387 60.3576 108.357 57.7108C110.198 57.816 111.415 58.9237 112.017 60.6511C112.944 63.1883 112.178 66.9562 111.085 69.3382ZM75.2294 80.0993C74.0227 78.2025 71.1051 77.2254 67.3872 79.3687C63.6034 81.5041 59.989 86.9089 59.3362 90.3865C58.5163 93.2789 58.5461 96.0371 59.5002 97.9753C59.5002 97.9886 59.503 98.0017 59.5135 98.0149C59.5132 98.0145 59.5138 98.0154 59.5135 98.0149C59.5138 98.0154 59.5141 98.017 59.5143 98.0175C59.5151 98.0183 59.5143 98.0191 59.5151 98.02C61.349 101.319 64.6138 101.327 67.8344 99.5109C71.3302 97.421 74.6774 93.2594 76.1388 87.4196C76.1965 86.8349 77.1814 82.8321 75.2294 80.0993ZM60.0668 97.4386C59.3065 95.7091 59.2916 93.3236 59.9922 90.7742L65.8963 94.2182C64.3033 95.9175 62.3649 97.0552 60.0668 97.4386ZM61.1552 87.6284C61.8172 89.396 62.6624 90.8153 63.6897 92.0712C63.5358 91.9825 59.9797 89.9309 60.201 90.0585C60.4544 89.2534 60.7675 88.4334 61.1552 87.6284ZM75.5424 86.4803C74.8927 91.0383 71.6116 96.4421 67.4617 98.8549C64.9429 100.286 62.0427 100.609 60.4654 98.1526C60.4946 98.1501 60.5321 98.1393 60.5588 98.1393C67.8967 96.5687 74.0226 85.2781 71.6959 79.0706C71.845 79.1053 73.7523 79.5491 73.6032 79.5144C75.6522 80.9162 75.9941 84.0742 75.5424 86.4803ZM85.7283 61.1964C83.1585 62.6778 81.0765 66.2864 81.0866 69.2406C81.0957 72.3641 83.4028 73.6916 86.1301 72.1183C88.6999 70.6347 90.7819 67.0261 90.7717 64.0756C90.7628 61.0066 88.5062 59.6009 85.7283 61.1964ZM90.0263 64.0777C90.0365 66.7902 88.1204 70.1084 85.7574 71.4733C84.6756 72.095 83.6841 72.2079 82.9561 71.7893C82.2339 71.3736 81.835 70.468 81.8321 69.2384C81.8219 66.523 83.738 63.2049 86.101 61.8421C88.3206 60.5635 90.0202 61.5168 90.0263 64.0777ZM80.7998 130.191C78.9329 130.943 76.5782 132.234 75.0735 133.715C75.0075 133.78 74.9754 133.869 74.9698 133.961C74.9693 133.968 74.961 133.973 74.961 133.981C74.9639 136.03 74.9484 143.263 74.9774 143.443C75.03 143.774 75.385 143.837 75.5787 143.67C77.4749 142.02 78.8544 141.322 81.0439 140.63C81.0461 140.63 81.0481 140.629 81.0502 140.628C81.143 140.599 81.3119 140.436 81.3121 140.273C81.3121 140.273 81.3121 140.273 81.3121 140.273C81.3099 138.007 81.3214 130.645 81.3006 130.49C81.262 130.203 80.9718 130.121 80.7998 130.191ZM75.7069 142.583V134.144C76.9755 132.929 79.0147 131.76 80.5668 131.103V139.999C78.6927 140.603 77.2991 141.306 75.7069 142.583ZM109.983 117.726C107.311 116.082 102.06 116.237 99.7827 118.518C98.1678 120.225 98.8569 122.235 100.895 123.405C103.191 124.737 106.931 124.874 109.45 123.705C112.613 122.264 112.902 119.384 109.983 117.726ZM101.268 122.759C99.7013 121.86 99.0298 120.408 100.317 119.037C102.343 117.008 107.199 116.89 109.603 118.367C111.889 119.666 111.883 121.747 109.126 123.027C106.87 124.063 103.409 124.001 101.268 122.759ZM100.85 113.803C104.143 115.708 110.073 115.099 111.615 112.189C112.476 110.559 111.512 109.048 109.913 108.088C106.5 106.146 100.649 106.878 99.1494 109.708C98.3006 111.307 99.26 112.893 100.85 113.803ZM99.8075 110.056C101.096 107.626 106.508 107.009 109.536 108.731C110.748 109.459 111.621 110.584 110.956 111.839C109.698 114.215 104.346 114.964 101.221 113.158C100.017 112.467 99.1501 111.298 99.8075 110.056Z" fill="#2F2F2F"/>
<path d="M146.793 119.027C146.793 115.926 146.853 115.508 146.733 114.643C146.256 110.812 143.424 107.219 138.772 104.52C138.012 104.088 137.221 103.7 136.416 103.327L136.744 103.134C136.923 103.029 136.983 102.806 136.893 102.627C136.789 102.448 136.55 102.388 136.371 102.493L135.552 102.97C124.996 98.5118 110.132 99.0188 100.664 104.505C92.1661 109.47 92.8221 115.463 92.7327 115.687C92.7327 116.105 92.7177 118.878 92.7177 118.878C92.7028 121.025 93.5676 123.261 94.7156 124.886C91.7966 124.755 88.9628 124.887 85.949 125.453L84.473 124.603C84.2941 124.498 84.0705 124.558 83.9661 124.737C83.8617 124.916 83.9213 125.139 84.1002 125.244L84.8457 125.676C80.1988 126.721 74.9533 128.88 71.9195 132.505C71.8599 132.564 71.8301 132.654 71.8301 132.743V149.024C71.8301 149.37 72.2652 149.527 72.4861 149.262C76.5209 144.603 84.6577 142.299 90.9883 142.046C92.5984 141.987 94.1937 142.017 95.6995 142.106C103.29 150.917 121.71 152.811 133.748 148.517C133.941 148.442 134.046 148.234 133.986 148.04C133.912 147.846 133.703 147.742 133.509 147.816C123.36 151.385 108.915 150.654 99.9486 144.79V142.494C101.662 143.473 103.45 144.421 105.226 145.058C119.557 150.432 137.605 146.576 143.901 138.93C144.736 137.976 145.101 137.467 146.033 135.606C145.659 139.71 142.839 142.665 139.383 144.969C139.204 145.073 139.16 145.311 139.264 145.475C139.383 145.654 139.607 145.699 139.786 145.595C143.578 143.067 146.793 139.565 146.793 134.994C146.794 134.841 146.809 131.584 146.808 131.789C146.808 129.582 146.033 127.406 144.497 125.378C145.988 123.41 146.778 121.263 146.793 119.027ZM136.252 131.521C137.102 131.133 138.548 130.402 139.249 129.94V131.774C139.249 132.907 138.086 134.398 136.252 135.68V131.521ZM114.753 134.473V139.914C108.566 139.754 102.26 138.811 102.081 138.811V130.879C105.748 132.758 110.132 133.966 114.753 134.473ZM101.052 105.161C111.309 99.1977 128.052 99.2126 138.399 105.176C146.018 109.574 148.776 116.656 142.932 122.933C134.97 131.371 117.69 132.475 106.598 128.777C92.2406 123.991 88.6327 112.392 101.052 105.161ZM90.9585 141.301C84.7219 141.561 76.9811 143.679 72.5755 148.085V132.877C73.6639 131.625 75.0653 130.492 76.765 129.523C81.1963 126.931 87.6477 125.221 95.282 125.661C95.9977 126.556 96.8624 127.406 97.8614 128.211C93.2611 127.827 89.2376 127.776 84.5327 128.986C84.3687 129.031 84.2494 129.18 84.2494 129.344V139.318C84.2494 139.488 84.5177 139.765 84.6966 139.676C89.2522 138.73 93.371 138.773 98.0104 139.139C98.1892 139.165 98.413 138.999 98.413 138.766V128.628C99.3374 129.329 100.336 129.97 101.335 130.507V139.139C101.335 139.489 101.602 139.451 101.753 139.527C102.228 139.527 105.317 140.255 115.126 140.675C115.275 140.675 115.484 140.541 115.484 140.317C115.496 135.609 115.499 134.38 115.499 134.562C116.468 134.651 117.437 134.711 118.421 134.726V140.362C118.421 140.57 118.585 140.734 118.794 140.734C119.621 140.672 125.521 141.232 132.346 138.558C132.495 138.513 132.585 138.364 132.585 138.215V132.549C132.585 132.519 132.585 132.475 132.57 132.445H132.54L131.839 132.639C131.839 132.654 131.839 132.654 131.839 132.669V137.961C125.678 140.285 119.59 139.957 119.166 139.989V134.756C120.389 134.845 124.25 134.726 128.067 134.01C128.261 133.981 128.395 133.787 128.365 133.578L128.35 133.563C128.306 133.369 128.142 133.235 127.933 133.28C118.709 134.987 107.502 133.792 99.9486 128.807V126.511C101.454 127.48 103.631 128.554 106.479 129.523C114.977 132.415 126.636 132.117 133.971 129.254C138.802 127.585 144.094 124.26 146.018 119.638C145.57 125.766 139.174 129.821 133.375 131.863C133.196 131.923 133.092 132.117 133.136 132.296C133.136 132.311 133.136 132.311 133.136 132.326C133.211 132.519 133.42 132.624 133.613 132.564C134.254 132.341 134.896 132.102 135.507 131.834V136.381C135.507 136.684 135.861 136.853 136.073 136.694C138.489 135.173 139.994 133.295 139.994 131.774V129.478C140.874 128.911 141.664 128.3 142.38 127.659V131.774C142.38 134.353 140.293 137.037 136.655 139.139C127.35 144.575 113.674 143.375 102.96 142.061C99.7359 141.709 95.4839 141.12 90.9585 141.301ZM97.6676 128.941V138.364C92.0581 137.91 88.391 138.188 84.9948 138.856V129.627C88.9494 128.661 93.621 128.494 97.6676 128.941ZM144.542 136.798C144.21 137.395 143.686 137.988 143.394 138.379C134.568 148.309 113.234 149.013 101.842 142.687C113.071 144.151 127.41 145.385 137.042 139.795C139.954 138.11 143.125 135.148 143.125 131.774V126.973C143.438 126.66 143.737 126.332 144.02 125.989C146.623 129.544 146.65 133.46 144.542 136.798Z" fill="#2F2F2F"/>
<path d="M146.017 119.638C145.57 125.766 139.174 129.821 133.374 131.864C133.196 131.923 133.091 132.117 133.136 132.296L132.569 132.445H132.54L131.839 132.639L128.35 133.563C128.305 133.369 128.141 133.235 127.933 133.28C123.743 134.055 119.405 134.219 115.245 133.802C115.245 133.802 115.23 133.802 115.23 133.787C110.012 133.265 104.376 131.73 99.9482 128.807V126.511C101.454 127.48 103.631 128.554 106.478 129.523C114.977 132.415 126.636 132.117 133.971 129.255C138.801 127.585 144.094 124.26 146.017 119.638Z" fill="black"/>
<path d="M122.037 117.285C123.428 116.476 123.422 115.046 122.01 114.231C120.74 113.498 118.754 113.498 117.49 114.231C116.103 115.038 116.104 116.469 117.505 117.277C118.793 118.02 120.782 118.014 122.037 117.285ZM117.866 114.876C118.883 114.283 120.615 114.285 121.637 114.876C122.527 115.391 122.577 116.109 121.662 116.64C120.625 117.242 118.929 117.239 117.878 116.632C116.98 116.113 116.972 115.394 117.866 114.876ZM115.18 109.019C117.702 110.459 121.711 110.498 124.288 109.002C124.29 109.002 124.29 109.002 124.291 109.001C126.886 107.477 126.963 104.857 124.243 103.288C121.702 101.819 117.613 101.861 115.164 103.304C115.164 103.304 115.164 103.304 115.164 103.304C115.163 103.304 115.163 103.304 115.162 103.304C112.587 104.8 112.443 107.437 115.18 109.019ZM115.539 103.947C117.782 102.631 121.594 102.619 123.87 103.934C126.045 105.188 126.06 107.096 123.914 108.358C121.647 109.668 117.891 109.707 115.551 108.373C113.386 107.122 113.379 105.201 115.539 103.947ZM124.361 122.506C121.842 121.058 117.761 121.064 115.269 122.521C112.296 124.242 112.954 126.919 115.298 128.221C117.871 129.704 121.868 129.693 124.411 128.204C127.13 126.606 126.951 123.978 124.361 122.506ZM115.643 123.165C117.936 121.827 121.68 121.825 123.991 123.153C126.146 124.378 126.201 126.29 124.032 127.561C121.809 128.868 118.004 128.92 115.665 127.572C113.554 126.399 113.428 124.449 115.643 123.165ZM129.553 113.805C132.907 115.712 139.052 115.052 140.423 112.026C141.143 110.454 140.16 108.989 138.647 108.105C138.647 108.105 138.647 108.104 138.646 108.104C135.086 106.038 129.071 107.052 127.788 109.868C127.139 111.298 127.815 112.806 129.553 113.805ZM138.271 108.748C139.42 109.419 140.301 110.502 139.745 111.716C138.635 114.159 133.15 114.992 129.923 113.158C128.751 112.485 127.912 111.4 128.467 110.177C129.525 107.856 135.05 106.882 138.271 108.748ZM138.676 117.706C136.553 116.464 133.185 116.201 130.444 117.281C127.152 118.642 126.52 121.567 129.624 123.405C132.737 125.212 138.661 124.801 140.333 121.896C140.333 121.896 140.333 121.896 140.334 121.895C141.098 120.55 140.724 118.875 138.676 117.706ZM130.002 122.761C127.449 121.252 127.997 119.099 130.724 117.972C133.226 116.987 136.347 117.209 138.303 118.352C139.591 119.088 140.415 120.243 139.685 121.527C138.455 123.66 133.294 124.665 130.002 122.761ZM153.651 65.841L145.452 61.1069C145.276 61.0042 145.047 61.0632 144.943 61.243C144.841 61.4214 144.902 61.6492 145.079 61.7519L153.281 66.4881C153.593 66.6636 153.856 67.1193 153.856 67.4826L153.812 83.8716C153.812 84.0598 153.779 84.0911 153.606 83.9925L147.326 80.3642C146.997 80.18 146.652 80.1706 146.387 80.3475L143.057 82.8619C143.047 82.8619 142.984 82.8605 142.885 82.8066C142.74 82.7214 142.593 82.5598 142.495 82.3793L139.148 75.9643C138.962 75.6491 138.713 75.3892 138.471 75.2552L132.206 71.6401C131.897 71.4617 131.626 70.9907 131.626 70.6333L131.671 54.2442C131.671 54.0516 131.721 54.0382 131.888 54.1335L142.025 59.9872C142.2 60.0892 142.428 60.0302 142.534 59.8511C142.636 59.6728 142.575 59.4449 142.398 59.3422L132.261 53.4885C131.58 53.0942 130.926 53.4814 130.926 54.2435L130.881 70.6325C130.881 71.2615 131.29 71.972 131.833 72.2851L138.104 75.9039C138.235 75.9767 138.389 76.1448 138.497 76.3268L141.837 82.7294C141.975 82.9829 142.167 83.186 142.38 83.3442V84.2444C142.38 84.4504 142.548 84.6171 142.753 84.6171C142.958 84.6171 143.126 84.4504 143.126 84.2444V83.5735C143.242 83.5602 143.358 83.5482 143.465 83.4822L146.8 80.9633C146.819 80.9641 146.87 80.9633 146.958 81.0121L153.233 84.6375C153.892 85.0216 154.558 84.6557 154.558 83.8724L154.602 67.4833C154.602 66.8528 154.191 66.1452 153.651 65.841Z" fill="#2F2F2F"/>
<path d="M140.028 66.4213L136.235 71.1284C136.093 71.304 136.138 71.5703 136.339 71.6846L150.75 80.0047C151.057 80.1816 151.416 79.8687 151.28 79.5395L146.637 68.3351C146.532 68.0785 146.183 68.0191 146.003 68.2434L142.949 72.026L140.661 66.5123C140.556 66.2543 140.205 66.1974 140.028 66.4213ZM143.135 72.9826L146.188 69.2L150.172 78.8101L137.088 71.2573L140.214 67.3778L142.502 72.8909C142.609 73.1544 142.959 73.1988 143.135 72.9826ZM123.062 87.8633H125.129V89.9322C125.129 90.1382 125.296 90.3049 125.502 90.3049C125.707 90.3049 125.874 90.1382 125.874 89.9322V87.8633H127.943C128.149 87.8633 128.316 87.6966 128.316 87.4906C128.316 87.2845 128.149 87.1178 127.943 87.1178H125.874V85.0496C125.874 84.8436 125.707 84.6769 125.502 84.6769C125.296 84.6769 125.129 84.8436 125.129 85.0496V87.1178H123.062C122.856 87.1178 122.689 87.2845 122.689 87.4906C122.689 87.6966 122.856 87.8633 123.062 87.8633ZM77.5932 109.378C100.959 101.87 119.858 71.1134 119.791 47.3285C119.791 43.7884 119.309 39.7245 118.162 36.4182C116.702 32.0046 113.858 27.7861 109.839 25.5243C109.833 25.5202 109.833 25.5116 109.827 25.5079C105.434 22.9952 103.016 21.0414 97.6774 20.7291C96.0976 18.2854 94.1338 16.4073 91.8755 15.0821C91.8647 15.074 91.8643 15.058 91.8524 15.0511C91.7014 14.9635 87.3803 12.4771 87.2893 12.4264C79.8096 8.26679 70.7769 10.6124 63.3611 14.9019C44.8291 25.6066 29.8007 51.6081 29.8007 72.943V73.0623C29.8306 83.4092 33.364 91.147 39.76 94.8594L39.7749 94.8743C39.7749 96.887 39.6855 99.3769 39.2531 101.971C38.0843 109.205 33.968 118.203 28.0355 122.359C28.0256 122.31 28.015 122.262 28.0059 122.212C27.987 122.104 27.9215 122.01 27.8268 121.955L11.2929 112.338C11.0132 112.177 10.6767 112.422 10.7396 112.732C11.8257 118.306 14.2194 122.419 17.4764 124.314C35.6723 134.85 33.5658 133.709 34.8549 134.354C37.8043 135.618 40.9939 134.982 43.7855 133.399C45.0975 132.639 46.3946 131.61 47.632 130.343C51.9109 125.99 55.4146 118.669 56.5327 111.707C56.8459 109.679 57.0098 107.577 57.0546 104.908C57.2063 104.993 57.3332 105.066 58.8091 105.94C59.563 106.763 61.116 108.027 62.3536 108.681C62.384 108.7 62.4109 108.708 62.4413 108.727L62.0711 108.941C61.8921 109.045 61.8324 109.273 61.9357 109.451C62.0395 109.632 62.271 109.688 62.4439 109.586L63.2352 109.128C67.7369 111.291 72.865 110.861 77.5932 109.378ZM52.4821 91.7551C53.0733 95.6421 53.9192 97.5899 55.3009 100.786C56.0644 102.422 56.7336 103.356 57.3412 104.18C56.4062 103.576 55.5645 102.853 54.82 102.131C47.9679 95.3644 47.6969 83.8473 49.3615 74.3594C49.3623 74.3552 49.3593 74.3514 49.3599 74.3472C52.2717 58.0603 62.306 41.0268 74.9855 30.6708L74.9996 30.6567C79.0958 27.3273 83.7417 24.4454 88.7534 22.7936L92.204 24.7992C90.9704 25.2381 89.9756 25.6388 88.8871 26.1587C83.6223 28.4219 76.1716 34.105 72.2935 38.2432C66.8307 43.8458 61.2659 52.4384 58.7734 57.9527C56.9781 61.8687 56.2133 64.3176 55.6722 65.8047C53.2002 73.3289 51.2671 83.7509 52.4821 91.7551ZM44.3882 77.2405C44.4667 77.2842 47.5691 79.0789 47.9567 79.3074C47.4946 84.7018 47.8055 90.6947 49.8137 95.7535L43.6364 92.1758C43.6264 92.0263 43.5441 87.7438 43.5775 87.2707C43.6453 84.2278 43.8052 81.305 44.3882 77.2405ZM48.9441 58.4666C49.7938 58.9608 51.7993 60.1272 52.6103 60.5989C50.8405 64.9621 49.5337 69.3668 48.7196 73.7041L45.369 71.767C46.2577 67.4517 47.5959 62.5423 48.9441 58.4666ZM57.5326 42.052C57.6837 42.1393 61.7232 44.4752 61.4669 44.327C58.8943 47.9762 56.6333 51.8233 54.7363 55.7761C54.4556 55.6144 51.3867 53.8491 50.8077 53.5016C52.5041 49.5565 54.8655 45.5299 57.5326 42.052ZM61.0073 38.0121C64.3439 34.5417 68.4996 31.3394 73.1467 29.6829C73.2959 29.7698 74.3901 30.4074 74.2409 30.3204C70.8312 33.1317 67.6124 36.4177 64.6351 40.1156C64.4859 40.0292 61.2414 38.1505 61.0073 38.0121ZM96.7506 20.7053C91.3916 20.6522 85.9687 22.6758 81.361 25.3294C79.7712 24.9564 78.4168 24.8228 76.5259 24.9805C76.5259 24.9241 76.5206 24.9338 76.5109 24.8761C76.5085 24.8639 76.5049 24.8498 76.5018 24.8365C75.4561 20.358 71.5051 19.5049 67.6549 21.7602C63.6156 24.1152 60.1726 29.2421 59.262 34.2802C55.6877 37.7847 53.5031 40.998 51.732 43.5572C50.9418 43.7361 50.1517 44.079 49.3317 44.5412C43.4618 47.9559 39.1094 57.1646 41.2212 62.6409C41.449 63.3818 42.0932 64.4028 42.9655 65.0114C42.9655 65.0263 42.9506 65.0412 42.9506 65.0561C40.8782 72.9579 39.7451 80.5765 39.7004 87.0769C39.6627 87.7549 39.7566 92.4589 39.76 92.6081C36.5695 88.5379 34.8549 82.6787 34.84 75.5373C34.7655 54.4259 49.6597 28.6332 68.0277 18.0478C78.1613 12.1891 90.1011 11.0224 96.7506 20.7053ZM60.2302 33.3594C61.3484 28.9314 64.5091 24.4438 68.0426 22.4162C69.1011 21.7899 70.1298 21.4321 71.1139 21.3427C71.7175 22.7431 71.8072 24.5089 71.591 25.9794C71.591 26.0241 71.591 26.0688 71.576 26.1285C71.3965 26.2182 66.3088 27.7579 60.2302 33.3594ZM74.6324 22.6248C75.212 23.089 75.7804 24.7792 75.7804 25.0699C75.2341 25.109 73.4873 25.4672 72.3513 25.8751C72.5433 24.4347 72.4513 22.681 71.904 21.3129C73.0051 21.3433 73.9375 21.8206 74.6324 22.6248ZM43.7408 62.2085C43.1444 62.4321 42.5778 62.5663 42.0262 62.6259C39.8887 57.8082 43.7514 48.6288 49.7193 45.1972C50.1964 44.9139 50.6735 44.6754 51.1356 44.5114C47.4859 50.3486 45.5462 55.858 43.7408 62.2085ZM43.1742 64.2212C42.876 63.9827 42.6077 63.6845 42.384 63.3267C42.7418 63.2819 43.1145 63.2074 43.4873 63.0881C43.3829 63.4758 43.2786 63.8485 43.1742 64.2212ZM30.5462 73.0623C30.4866 51.9511 45.3808 26.1434 63.7338 15.543C66.1364 14.1564 68.4959 13.0959 70.7875 12.3418L74.2276 14.3483C71.941 15.1507 69.635 16.2503 67.6475 17.3975C67.6375 17.4033 67.6372 17.4165 67.6279 17.423C49.0637 28.1376 34.02 54.1979 34.0946 75.5521C34.1095 83.2751 36.0924 89.5518 39.7749 93.786V93.9798C33.8411 90.342 30.576 82.9321 30.5462 73.0623ZM38.1249 116.438L48.6149 122.532C46.6538 125.952 43.4564 129.968 39.6401 130.959C38.4489 131.266 37.3443 131.218 36.4097 130.787C36.1287 130.675 35.5389 130.29 29.3191 126.695L29.1678 126.283C33.0566 123.884 35.9422 120.247 38.1249 116.438ZM17.852 123.669C14.9401 121.977 12.7517 118.348 11.6423 113.404L27.3041 122.514C27.923 125.524 29.2058 129.002 31.1217 131.375L17.852 123.669ZM55.7873 111.587C54.6989 118.416 51.2848 125.572 47.0953 129.821C45.9025 131.029 44.6652 132.028 43.4128 132.743C40.548 134.397 37.2444 134.942 34.3928 133.265C32.4049 132.124 30.805 129.94 29.8306 127.868L35.6004 131.223C36.7768 131.864 38.0585 132.079 39.6231 131.715C43.861 130.751 47.3375 126.395 49.4509 122.575C49.5553 122.397 49.4808 122.173 49.3168 122.068L38.1796 115.598C38.0228 115.519 37.7645 115.559 37.6619 115.744C37.6617 115.744 37.662 115.743 37.6619 115.744C37.6612 115.745 37.6585 115.746 37.6579 115.747C34.7189 120.978 31.7551 123.75 28.9005 125.541C28.6652 124.847 28.5025 124.389 28.2135 123.166C34.4014 119.034 38.7737 109.617 39.9986 102.09C40.9232 96.4048 40.3154 89.5686 40.4459 87.0918C40.4905 80.7256 41.5939 73.2263 43.6215 65.4289C43.7371 64.9671 45.1539 60.1311 45.8744 57.7757C47.334 53.3862 48.5271 50.4462 51.2046 45.8573C54.9702 39.5236 60.091 33.5478 66.3418 29.5911C70.6844 26.8349 75.3331 25.0593 80.4301 25.8912C78.5399 27.0441 76.7919 28.2448 74.8451 29.8046L73.38 28.9464C73.2757 28.9016 73.1713 28.8867 73.067 28.9165C67.8811 30.734 63.9757 33.9195 60.1335 37.8581C59.9766 38.0026 60.001 38.2856 60.2245 38.4206C60.2271 38.4221 60.2267 38.426 60.2293 38.4274C60.3801 38.5142 64.0219 40.6196 64.1393 40.6875C63.3543 41.6726 62.5946 42.6829 61.8722 43.7049L57.636 41.2314C57.4869 41.15 57.2661 41.1802 57.1485 41.3306C57.1474 41.3321 57.1464 41.3335 57.1453 41.335C57.145 41.3353 57.1444 41.3353 57.1441 41.3358C54.0048 45.3933 51.5582 49.8134 49.9877 53.5165C49.9874 53.5171 49.9879 53.5178 49.9876 53.5184C49.9873 53.5191 49.9869 53.52 49.9866 53.5207C49.9086 53.7044 50.0446 53.9328 50.1482 53.991C50.1485 53.9912 50.1502 53.9922 50.1506 53.9923C50.1511 53.9926 50.1511 53.9933 50.1517 53.9936C50.5878 54.2451 48.5724 53.0823 54.4157 56.4536C53.9236 57.4675 53.4317 58.5707 52.8949 59.8976C52.7454 59.8107 49.9205 58.1644 48.9291 57.5867C48.6936 57.4858 48.4967 57.5568 48.3924 57.7656C48.3924 57.7805 48.3477 57.8699 48.3477 57.8699C47.1207 61.449 45.6146 66.8234 44.5835 71.8848C44.5543 72.0272 44.6642 72.2244 44.7626 72.2815L44.7665 72.2838C46.1217 73.0709 48.7305 74.5861 48.5713 74.4936C48.3329 75.894 48.1541 77.2346 48.0349 78.4863C47.2839 78.0505 44.6578 76.536 44.2909 76.3218C44.0658 76.1841 43.7577 76.3266 43.7259 76.5808C42.6371 83.8868 42.8118 87.602 42.891 92.4143C42.891 92.5361 42.9711 92.6569 43.0699 92.7274C43.221 92.8147 50.7984 97.1936 50.3252 96.9201C51.7411 100.042 53.75 102.556 56.3241 104.401C56.2756 105.681 56.352 108.175 55.7873 111.587ZM63.3509 108.364C61.9862 107.816 59.9427 106.035 60.4667 106.462C59.3562 105.722 57.2686 103.238 55.9765 100.472C54.5849 97.4479 53.7516 95.1557 53.2189 91.643C52.0196 83.6804 53.9789 73.3545 56.3783 66.042C56.5371 65.6962 60.9166 51.0088 72.8307 38.7587C76.7936 34.5742 83.9959 29.0864 89.2234 26.8241C96.4795 23.3748 104.955 22.418 111.348 27.4516C114.249 29.7212 116.298 33.1763 117.471 36.6992C119.116 41.3182 119.033 47.1808 119.046 47.3299C119.113 70.9731 100.265 101.359 77.3675 108.667C72.726 110.124 67.7243 110.541 63.3509 108.364Z" fill="#2F2F2F"/>
</svg>
