<svg width="164" height="164" viewBox="0 0 164 164" fill="none" xmlns="http://www.w3.org/2000/svg">
<path d="M87.0139 77.3145C87.6207 76.5613 88.4965 75.6657 89.5664 76.0426C91.9122 76.8691 100.398 91.2936 101.581 93.4745C102.127 94.4805 103.309 96.4878 102.818 97.5082C102.211 98.7711 99.4647 98.6742 98.1645 98.7358C96.5025 98.8145 78.3027 99.2935 77.0681 98.0698C76.767 97.7713 76.6089 97.3508 76.5752 96.93C76.3467 94.0737 85.0266 79.7814 87.0139 77.3145Z" fill="#7A73FF"/>
<path d="M124.014 113.027L124.858 113.89C126.196 115.257 128.359 115.369 129.831 114.147L145.863 100.834C148.374 98.7492 151.001 101.11 150.758 101.014C152.27 102.469 152.257 104.894 150.73 106.334L130.18 125.709C128.757 127.05 126.532 127.042 125.12 125.69L117.98 118.859C116.306 117.258 116.514 114.525 118.412 113.196L119.28 112.588C120.753 111.556 122.756 111.742 124.014 113.027Z" fill="#7A73FF"/>
<path d="M30.5259 69.3061C40.7922 69.3061 49.1147 60.9836 49.1147 50.7173C49.1147 40.4509 40.7922 32.1284 30.5259 32.1284C20.2595 32.1284 11.937 40.4509 11.937 50.7173C11.937 60.9836 20.2595 69.3061 30.5259 69.3061Z" fill="#D8FF1E"/>
<path d="M67.1521 140.391C76.276 140.391 83.6724 132.994 83.6724 123.87C83.6724 114.746 76.276 107.35 67.1521 107.35C58.0282 107.35 50.6318 114.746 50.6318 123.87C50.6318 132.994 58.0282 140.391 67.1521 140.391Z" fill="#F5D1FF"/>
<path d="M52.8907 46.4923C54.2259 46.3495 55.5632 46.2169 56.9003 46.1005C57.993 46.0047 57.8246 44.3594 56.7593 44.4669C55.458 44.579 54.1576 44.7098 52.8579 44.8486C52.5421 38.5497 49.2589 32.8299 43.8806 29.4165C42.9581 28.8412 42.0886 30.2214 43.0008 30.8024C52.3542 36.733 53.8796 49.3212 47.0773 57.3072C43.7119 61.3057 38.7663 63.5981 33.5132 63.5981C20.8228 63.5981 12.2243 50.6272 17.1473 38.9351C19.8465 32.547 26.0499 28.289 32.9473 28.0861C34.0559 28.0521 33.9481 26.3846 32.9003 26.4461C25.0618 26.6773 18.2549 31.7416 15.6162 38.3383C10.2547 50.9361 19.5871 65.2381 33.5132 65.2381C43.9559 65.2381 52.5327 57.0131 52.8907 46.4923ZM85.3397 118.952C84.007 119.029 82.6734 119.085 81.3372 119.129C80.2219 110.636 72.9541 104.054 64.1628 104.054C56.5896 104.054 50.1505 108.943 47.794 115.724C45.893 114.873 44.2946 113.949 43.2763 113.081C40.9345 111.08 39.2732 108.316 38.5154 105.357C39.7073 106.585 42.2919 108.582 43.7589 108.582C44.8499 108.582 45.5665 107.646 45.5612 106.619C45.5548 104.789 43.046 101.744 41.2498 100.336C42.7147 99.1784 43.966 97.6462 45.1362 95.5941C45.3797 95.1649 46.1228 93.858 45.4672 92.675C45.0188 91.8646 43.9895 91.4172 42.9517 91.602C42.6487 91.6548 42.3872 91.7797 42.1245 91.9014C49.0147 85.6765 63.2087 88.1233 74.2551 88.7618C72.9131 91.4314 71.0523 94.6745 72.8241 96.4195C73.3216 96.9138 73.864 96.9736 74.2612 97.0174C82.2714 97.8695 89.9652 97.3922 95.216 97.2992C96.8758 97.2524 99.1825 97.1269 99.8905 95.6304C100.684 93.9795 98.9205 91.2706 97.056 88.1271C104.028 87.0378 109.73 85.0777 113.991 82.2819C128.522 72.7459 123.991 51.6173 108.073 46.8628C103.087 45.3737 97.8589 44.6906 92.4883 44.3153C93.5042 43.3036 94.4214 42.0651 95.2929 40.5377C95.5364 40.1085 96.2795 38.8016 95.6239 37.6197C95.1733 36.805 94.1291 36.3598 93.1084 36.5456C91.2597 36.8691 88.5999 39.7077 87.4816 41.3439C86.407 39.7349 83.8365 36.1496 81.9829 35.6103C80.4232 35.156 78.7755 36.4756 79.9478 38.8988C80.8418 40.7459 82.068 42.4367 83.5164 43.8962C83.1408 43.8843 84.8769 43.9395 79.8432 43.7804C78.773 43.7804 78.7501 45.3901 79.8197 45.4204L82.9547 45.5199C81.6036 46.6946 79.0522 49.2126 78.8972 50.9927C78.7593 52.6126 80.2107 53.9752 82.4078 52.7096C84.2678 51.6334 85.8565 50.1567 87.063 48.395C88.6219 50.5859 90.4626 52.1608 92.6599 53.1911C92.9012 53.3033 93.3753 53.5253 93.9156 53.5253C95.0066 53.5253 95.7232 52.5891 95.7179 51.5629C95.712 49.8944 93.5404 47.1888 92.1517 45.9318C97.5487 46.2938 102.644 46.9528 107.604 48.4345C122.253 52.8086 126.4 72.1761 113.089 80.911C108.898 83.6625 103.205 85.5811 96.1684 86.6125L96.1658 86.6133C94.2337 83.4417 94.0606 83.2732 92.4293 80.6611C89.5251 76.0056 89.1483 75.9641 88.0816 74.6307C85.0463 70.8231 82.9469 73.8551 80.392 77.8958C78.8086 80.4088 76.9209 83.6545 75.0785 87.164C60.7679 86.4501 41.9634 82.7366 37.3612 96.3554C37.3502 96.3709 37.3358 96.3842 37.3249 96.4002C35.654 93.9 32.1264 89.004 29.9406 91.0606C29.5434 91.4333 28.9968 92.3056 29.7911 93.9552C30.814 96.0671 32.2533 97.9954 33.9894 99.5841C32.2867 100.92 28.9214 103.952 28.7405 106.052C28.6075 107.713 30.088 109.019 32.2511 107.766C33.9507 106.783 35.4078 105.452 36.5697 103.888C37.1143 107.86 39.1264 111.694 42.2129 114.328C43.6807 115.58 45.708 116.606 47.3274 117.316C44.6282 128.451 53.1697 138.733 64.1628 138.733C73.7474 138.733 81.8286 130.826 81.4706 120.765C82.793 120.72 84.1153 120.665 85.4337 120.59C86.5197 120.526 86.4236 118.868 85.3397 118.952ZM81.7779 78.7724C85.5406 72.8278 85.5409 74.3218 87.2808 76.2312C89.1494 78.2819 90.5984 80.8869 92.0983 83.2087C92.8234 84.3324 98.9709 93.7544 98.4106 94.9236C98.1412 95.5094 96.5098 95.6269 94.4601 95.6849C92.1463 95.7926 74.7897 96.0564 73.9772 95.2546C73.8384 95.1168 73.7466 94.8916 73.7273 94.63C73.5482 92.4272 80.5774 80.6729 81.7779 78.7724ZM64.1628 137.093C55.5058 137.093 48.4632 130.05 48.4632 121.393C48.4632 112.736 55.5058 105.694 64.1628 105.694C72.8198 105.694 79.8624 112.736 79.8624 121.393C79.8624 130.05 72.8198 137.093 64.1628 137.093Z" fill="white"/>
<path d="M94.6461 118.149C93.1001 118.328 91.5498 118.484 89.9995 118.617C88.9175 118.709 89.0612 120.349 90.1404 120.251C91.7078 120.117 93.2709 119.959 94.834 119.779C95.9079 119.654 95.7298 118.026 94.6461 118.149ZM103.581 116.87C102.15 117.116 100.717 117.342 99.28 117.549C98.2818 117.692 98.3837 119.181 99.3974 119.181C99.6695 119.181 103.16 118.607 103.858 118.487C104.904 118.307 104.681 116.709 103.581 116.87ZM64.4898 45.5837C65.1244 45.5837 66.6784 45.4164 72.173 45.3563C73.2525 45.3436 73.2442 43.7163 72.1645 43.7163C71.0203 43.7163 67.5867 43.7928 64.4492 43.9448C63.393 43.9949 63.4275 45.5837 64.4898 45.5837ZM138.631 122.647V129.928C138.631 131.395 137.438 132.588 135.973 132.588H111.858C110.393 132.588 109.199 131.395 109.199 129.928V104.469C109.199 103.002 110.393 101.809 111.858 101.809H124.117C125.202 101.809 125.202 100.169 124.117 100.169H111.858C109.487 100.169 107.559 102.098 107.559 104.469V129.928C107.559 132.299 109.487 134.228 111.858 134.228H135.973C138.343 134.228 140.271 132.299 140.271 129.928V122.647C140.271 121.562 138.631 121.561 138.631 122.647Z" fill="white"/>
<path d="M150.683 98.3018C149.035 96.7109 146.457 96.6191 144.698 98.0818L128.665 111.394C127.531 112.337 125.835 112.252 124.802 111.195L123.958 110.333C122.415 108.753 119.978 108.527 118.167 109.795L117.3 110.402C114.971 112.031 114.726 115.375 116.771 117.33L123.911 124.162C125.644 125.818 128.362 125.824 130.098 124.184L150.651 104.809C152.518 103.046 152.536 100.084 150.683 98.3018ZM149.526 103.616L128.975 122.99C127.868 124.031 126.145 124.026 125.043 122.977L117.902 116.145C116.599 114.898 116.77 112.775 118.24 111.745C118.86 111.385 119.477 110.619 120.747 110.619C122.402 110.619 123.113 111.926 123.63 112.342C125.257 114.004 127.926 114.139 129.711 112.656L145.744 99.3439C146.867 98.4139 148.499 98.4726 149.547 99.4827C150.722 100.614 150.711 102.495 149.526 103.616ZM116.602 39.7284L124.206 19.3191C124.584 18.3043 123.047 17.7267 122.669 18.7469L115.064 39.1561C114.686 40.1709 116.22 40.7468 116.602 39.7284ZM122.637 43.2636C123.12 43.2636 122.802 43.2616 131.505 37.3164C132.4 36.7001 131.461 35.3506 130.574 35.9669L122.171 41.7688C121.51 42.2243 121.837 43.2636 122.637 43.2636ZM125.949 49.2128C133.696 52.1242 133.361 52.0679 133.643 52.0679C134.547 52.0679 134.784 50.8037 133.933 50.4813L126.529 47.6796C125.516 47.2946 124.934 48.8284 125.949 49.2128ZM54.3011 144.04C47.1475 142.156 41.0039 136.408 38.6464 129.397C38.2982 128.365 36.7453 128.896 37.0918 129.92C39.6201 137.44 46.21 143.605 53.8826 145.627C54.939 145.899 55.3436 144.315 54.3011 144.04ZM39.2486 144.191C36.827 143.295 34.7428 141.474 33.5299 139.193C33.0175 138.237 31.5716 139.007 32.0821 139.964C33.4808 142.595 35.8853 144.696 38.6805 145.728C39.6927 146.108 40.2693 144.568 39.2486 144.191Z" fill="white"/>
</svg>
