<svg width="103" height="36" viewBox="0 0 103 36" fill="none" xmlns="http://www.w3.org/2000/svg">
<g clip-path="url(#clip0_5052_2788)">
<path d="M21.212 12.5254C17.5515 12.5254 14.6913 15.3042 14.6913 19.0242C14.6913 22.7442 17.4792 25.4992 21.212 25.4992C24.9448 25.4992 27.7812 22.6966 27.7812 19.0004C27.7812 15.328 24.9933 12.5254 21.212 12.5254ZM21.2367 22.8183C19.1521 22.8183 17.6246 21.1993 17.6246 19.0251C17.6246 16.8262 19.1274 15.2081 21.212 15.2081C23.3212 15.2081 24.8479 16.8509 24.8479 19.0251C24.8479 21.1993 23.3212 22.8183 21.2367 22.8183ZM28.5807 15.3527H30.3989V25.2586H33.3076V12.7669H28.5807V15.3527ZM7.37106 15.2072C8.89858 15.2072 10.1105 16.1493 10.5706 17.5506H13.6494C13.0915 14.5551 10.6191 12.5254 7.39575 12.5254C3.7352 12.5254 0.875 15.3042 0.875 19.0251C0.875 22.746 3.66295 25.5001 7.39575 25.5001C10.5468 25.5001 13.0677 23.4705 13.6256 20.4502H10.5706C10.1343 21.8515 8.92235 22.8183 7.39485 22.8183C5.28559 22.8183 3.80745 21.1993 3.80745 19.0251C3.80838 16.8262 5.26272 15.2072 7.37106 15.2072ZM83.8474 17.8168L81.7144 17.5031C80.6965 17.3586 79.9692 17.0201 79.9692 16.2225C79.9692 15.3527 80.9151 14.9182 82.1993 14.9182C83.6052 14.9182 84.5024 15.5219 84.6962 16.5125H87.5081C87.1926 13.9998 85.2534 12.5263 82.2724 12.5263C79.1935 12.5263 77.1576 14.0968 77.1576 16.3195C77.1576 18.4452 78.491 19.6782 81.1811 20.0642L83.3141 20.3779C84.357 20.5224 84.9386 20.934 84.9386 21.7069C84.9386 22.6975 83.9208 23.1082 82.5148 23.1082C80.7933 23.1082 79.8238 22.4076 79.6784 21.3447H76.8181C77.0853 23.7851 78.9998 25.5001 82.4901 25.5001C85.666 25.5001 87.7742 24.0504 87.7742 21.5615C87.7742 19.3388 86.2476 18.179 83.8474 17.8168ZM31.8533 7.62086C30.7868 7.62086 29.9866 8.39377 29.9866 9.45662C29.9866 10.5195 30.7859 11.2924 31.8533 11.2924C32.9198 11.2924 33.7202 10.5195 33.7202 9.45662C33.7202 8.39377 32.9198 7.62086 31.8533 7.62086ZM74.5397 17.0439C74.5397 14.3383 72.8916 12.5263 69.401 12.5263C66.1045 12.5263 64.2623 14.1938 63.8983 16.7549H66.7831C66.9285 15.7643 67.7042 14.9429 69.3526 14.9429C70.8317 14.9429 71.5587 15.595 71.5587 16.3927C71.5587 17.4317 70.2251 17.697 68.5769 17.8662C66.3469 18.1077 63.5836 18.8806 63.5836 21.7801C63.5836 24.0275 65.2565 25.4763 67.923 25.4763C70.0074 25.4763 71.3163 24.6065 71.9713 23.229C72.0684 24.461 72.9895 25.2586 74.2745 25.2586H75.9713V22.6738H74.5405V17.0439H74.5397ZM71.6794 20.1849C71.6794 21.8524 70.2251 23.0844 68.4551 23.0844C67.3642 23.0844 66.4431 22.6253 66.4431 21.6594C66.4431 20.4273 67.9219 20.0889 69.2795 19.9444C70.5884 19.8236 71.3155 19.5337 71.6794 18.9775V20.1849ZM56.2388 12.5254C54.6143 12.5254 53.257 13.2022 52.2875 14.3374V7.50012H49.3788V25.2586H52.2388V23.6159C53.2083 24.7995 54.5906 25.5001 56.2388 25.5001C59.7291 25.5001 62.3717 22.746 62.3717 19.0251C62.3717 15.3042 59.6807 12.5254 56.2388 12.5254ZM55.8026 22.8183C53.7179 22.8183 52.1905 21.1993 52.1905 19.0251C52.1905 16.8509 53.7418 15.2081 55.8262 15.2081C57.9356 15.2081 59.4135 16.8271 59.4135 19.0251C59.4135 21.1993 57.8869 22.8183 55.8026 22.8183ZM42.4215 12.5254C40.531 12.5254 39.2943 13.2983 38.5673 14.3858V12.7669H35.6822V25.2577H38.5909V18.469C38.5909 16.56 39.8028 15.2072 41.5966 15.2072C43.2695 15.2072 44.3112 16.3908 44.3112 18.1068V25.2586H47.2199V17.89C47.2211 14.748 45.5974 12.5254 42.4215 12.5254ZM101.64 18.6144C101.64 15.0389 99.0219 12.5263 95.5069 12.5263C91.7741 12.5263 89.0348 15.3289 89.0348 19.0251C89.0348 22.9152 91.9679 25.5001 95.5555 25.5001C98.5857 25.5001 100.961 23.7119 101.567 21.1755H98.5362C98.1 22.2868 97.0335 22.9152 95.6031 22.9152C93.7361 22.9152 92.3302 21.7554 92.0154 19.7257H101.639V18.6144H101.64ZM92.1856 17.6476C92.6469 15.9079 93.9555 15.0627 95.4585 15.0627C97.1066 15.0627 98.3672 16.0048 98.658 17.6476H92.1856Z" fill="white" fill-opacity="0.6"/>
</g>
<defs>
<clipPath id="clip0_5052_2788">
<rect width="101.25" height="36" fill="white" transform="translate(0.875)"/>
</clipPath>
</defs>
</svg>
