<svg width="91" height="36" viewBox="0 0 91 36" fill="none" xmlns="http://www.w3.org/2000/svg">
<g clip-path="url(#clip0_5052_2791)">
<path d="M28.5687 24.3197L29.6698 21.7461C30.8754 22.6389 32.4479 23.1114 34.0208 23.1114C35.1741 23.1114 35.9079 22.6652 35.9079 21.9825C35.8816 20.0916 28.962 21.5622 28.9093 16.8083C28.883 14.3922 31.0326 12.5276 34.0734 12.5276C35.8816 12.5276 37.6906 12.9742 38.9747 13.9986L37.9458 16.6271C36.7643 15.8673 35.305 15.3376 33.9159 15.3376C32.9723 15.3376 32.343 15.7839 32.343 16.362C32.3693 18.2266 39.342 17.2022 39.4206 21.7461C39.4206 24.2148 37.3233 25.9482 34.3351 25.9482C32.1336 25.9482 30.1153 25.423 28.5684 24.3197H28.5687ZM72.4123 20.8141C72.1343 21.308 71.73 21.719 71.2409 22.005C70.7517 22.2911 70.1952 22.4419 69.6285 22.4419C67.8624 22.4419 66.4309 21.0074 66.4309 19.2379C66.4309 17.4684 67.8624 16.0339 69.6285 16.0339C70.1952 16.0339 70.7517 16.1847 71.2409 16.4707C71.73 16.7568 72.1343 17.1678 72.4123 17.6616L75.4734 15.9624C74.3269 13.9133 72.1397 12.5276 69.6285 12.5276C65.9298 12.5276 62.9314 15.5316 62.9314 19.2379C62.9314 22.9438 65.9298 25.9482 69.6285 25.9482C72.1397 25.9482 74.3269 24.5625 75.4734 22.5133L72.4123 20.8141ZM41.407 25.6854H45.2339V6.94171H41.4074L41.407 25.6854ZM77.4061 6.94171V25.6854H81.233V20.0698L85.7678 25.6854H90.6593L84.8926 19.0142L90.2398 12.7892H85.558L81.233 17.9646V6.94171H77.4061ZM57.0241 12.79V14.3136C56.3952 13.2629 54.8486 12.5276 53.2235 12.5276C49.8683 12.5276 47.2211 15.4955 47.2211 19.2247C47.2211 22.9539 49.8683 25.9482 53.2235 25.9482C54.8486 25.9482 56.3952 25.2129 57.0241 24.1621V25.6854H60.851V12.79H57.0241ZM57.0241 20.8401C56.4737 21.7592 55.3204 22.4415 54.0362 22.4415C52.2698 22.4415 50.8382 21.0074 50.8382 19.2379C50.8382 17.4684 52.2698 16.0339 54.0362 16.0339C55.3204 16.0339 56.4737 16.7429 57.0241 17.6879V20.8401Z" fill="white" fill-opacity="0.6"/>
<path d="M8.35903 6.52783C7.11884 6.52783 6.11362 7.53531 6.11362 8.77775C6.11332 9.07292 6.17117 9.36525 6.28385 9.63807C6.39653 9.91088 6.56184 10.1588 6.77035 10.3677C6.97885 10.5767 7.22647 10.7425 7.49905 10.8557C7.77164 10.9689 8.06386 11.0274 8.35903 11.0277H10.6048V8.77775C10.6053 8.1816 10.369 7.60966 9.94783 7.18773C9.52668 6.7658 8.95518 6.52843 8.35903 6.52783ZM8.35903 12.5276H2.3709C1.13072 12.5276 0.125488 13.5351 0.125488 14.7779C0.125488 16.0203 1.13072 17.0278 2.3709 17.0278H8.3594C9.59921 17.0278 10.6048 16.0203 10.6048 14.7779C10.6048 13.5351 9.59921 12.5276 8.35903 12.5276Z" fill="white" fill-opacity="0.6"/>
<path d="M22.5809 14.7779C22.5809 13.5351 21.5753 12.5276 20.3351 12.5276C19.0949 12.5276 18.0897 13.5351 18.0897 14.7779V17.0278H20.3351C20.9313 17.0272 21.5028 16.7899 21.9239 16.3679C22.3451 15.946 22.5814 15.3741 22.5809 14.7779ZM16.5928 14.7779V8.77775C16.5933 8.1816 16.3569 7.60966 15.9358 7.18773C15.5146 6.7658 14.9431 6.52843 14.347 6.52783C13.1068 6.52783 12.1016 7.53531 12.1016 8.77775V14.7775C12.1016 16.0207 13.1068 17.0282 14.347 17.0282C14.9431 17.0276 15.5146 16.7902 15.9358 16.3683C16.3569 15.9464 16.5933 15.3744 16.5928 14.7783" fill="white" fill-opacity="0.6"/>
<path d="M14.347 29.0276C14.9431 29.027 15.5146 28.7896 15.9358 28.3677C16.3569 27.9458 16.5933 27.3738 16.5928 26.7777C16.5933 26.1815 16.3569 25.6096 15.9358 25.1876C15.5146 24.7657 14.9431 24.5283 14.347 24.5277H12.1016V26.7777C12.1016 28.0201 13.1068 29.0276 14.347 29.0276ZM14.347 23.0278H20.3355C21.5753 23.0278 22.5809 22.0203 22.5809 20.7775C22.5814 20.1814 22.3451 19.6094 21.9239 19.1875C21.5028 18.7656 20.9313 18.5282 20.3351 18.5276H14.347C13.1068 18.5276 12.1016 19.5351 12.1016 20.7775C12.1013 21.0727 12.1591 21.365 12.2718 21.6378C12.3845 21.9106 12.5498 22.1586 12.7583 22.3675C12.9668 22.5764 13.2144 22.7422 13.487 22.8555C13.7596 22.9687 14.0518 23.0271 14.347 23.0274" fill="white" fill-opacity="0.6"/>
<path d="M0.125001 20.7775C0.124705 21.0727 0.182549 21.365 0.295231 21.6378C0.407913 21.9106 0.573226 22.1586 0.781731 22.3675C0.990237 22.5764 1.23785 22.7422 1.51044 22.8555C1.78302 22.9687 2.07524 23.0271 2.37041 23.0274C2.96656 23.0268 3.53806 22.7895 3.95922 22.3675C4.38037 21.9456 4.61669 21.3737 4.61619 20.7775V18.5276H2.37041C1.13023 18.5276 0.125001 19.5351 0.125001 20.7775ZM6.11313 20.7775V26.7773C6.11313 28.0201 7.11836 29.0276 8.35854 29.0276C8.95469 29.027 9.52619 28.7896 9.94735 28.3677C10.3685 27.9458 10.6048 27.3738 10.6043 26.7777V20.7775C10.6046 20.4823 10.5468 20.1899 10.4341 19.9171C10.3214 19.6443 10.156 19.3963 9.94746 19.1874C9.73891 18.9784 9.49125 18.8126 9.21863 18.6994C8.946 18.5862 8.65374 18.5278 8.35854 18.5276C7.11836 18.5276 6.11313 19.5351 6.11313 20.7775Z" fill="white" fill-opacity="0.6"/>
</g>
<defs>
<clipPath id="clip0_5052_2791">
<rect width="90.75" height="36" fill="white" transform="translate(0.125)"/>
</clipPath>
</defs>
</svg>
